<?xml version="1.0" standalone="no"?>
<!DOCTYPE svg PUBLIC "-//W3C//DTD SVG 20010904//EN"
 "http://www.w3.org/TR/2001/REC-SVG-20010904/DTD/svg10.dtd">
<svg version="1.0" xmlns="http://www.w3.org/2000/svg"
 width="800.000000pt" height="600.000000pt" viewBox="0 0 800.000000 600.000000"
 preserveAspectRatio="xMidYMid meet">

<g transform="translate(0.000000,600.000000) scale(0.100000,-0.100000)"
fill="#000000" stroke="none">
<path d="M0 3000 l0 -3000 4000 0 4000 0 0 479 c0 263 -5 493 -10 510 -5 19
-5 31 1 31 5 0 9 265 9 675 l0 675 -34 0 c-24 0 -38 6 -49 24 -14 21 -14 26 4
55 14 24 26 31 49 31 l31 0 -2 144 -2 145 -56 0 c-219 1 -203 -1 -196 21 6 17
2 20 -29 20 -44 0 -68 22 -57 53 10 26 71 38 71 14 0 -8 9 -22 21 -33 16 -15
39 -19 125 -21 98 -2 104 -1 104 17 0 11 5 20 10 20 6 0 10 33 10 80 0 79 -5
91 -27 69 -8 -8 -14 -6 -22 10 -9 16 -8 26 5 47 l17 25 -39 -3 c-32 -2 -39 -7
-37 -23 2 -29 -15 -55 -37 -55 -14 0 -22 11 -30 40 -9 33 -16 42 -40 47 -33 6
-38 24 -14 43 32 28 35 48 11 72 -21 21 -25 22 -48 9 -25 -14 -59 -11 -87 7
-19 13 -3 45 20 39 21 -6 41 23 32 47 -7 18 -41 21 -79 6 -22 -9 -26 -15 -21
-35 9 -34 -13 -42 -67 -25 -26 8 -35 15 -25 17 9 3 20 13 23 24 7 22 21 25 28
7 3 -10 8 -9 18 3 18 21 100 42 113 29 6 -6 21 -10 35 -10 14 0 35 -10 48 -22
21 -19 27 -20 62 -9 46 13 82 2 106 -36 9 -12 24 -23 35 -23 17 0 20 7 20 46
0 44 -1 45 -27 42 -21 -2 -30 3 -38 19 -12 27 -36 34 -78 22 -17 -5 -43 -9
-56 -9 -19 0 -21 2 -11 15 6 8 22 17 33 21 12 3 30 16 39 28 14 17 19 19 29 9
18 -18 27 -16 39 7 9 16 7 24 -5 36 -20 21 -19 36 3 32 10 -2 18 -14 20 -30 2
-14 12 -34 22 -43 14 -12 17 -25 13 -46 -3 -18 -1 -29 6 -29 8 0 11 157 11
581 l0 581 -22 -16 c-43 -31 -153 -78 -195 -83 -26 -4 -43 -11 -43 -19 0 -7
-14 -21 -31 -31 -20 -12 -29 -24 -25 -35 2 -10 0 -18 -6 -18 -9 0 -2 -38 9
-50 3 -3 16 9 29 25 14 17 29 36 35 43 15 18 61 -75 52 -103 -4 -11 -7 -69 -8
-128 -1 -120 3 -129 60 -129 33 0 43 -7 29 -21 -4 -3 -15 -2 -25 4 -11 5 -46
7 -84 3 l-65 -7 0 -43 c0 -38 -3 -44 -25 -50 -14 -3 -25 -10 -25 -14 0 -4 -20
-11 -44 -14 -24 -4 -60 -15 -80 -25 -36 -19 -36 -19 -51 2 -12 17 -17 18 -30
7 -8 -7 -13 -21 -10 -30 4 -13 -2 -19 -27 -25 -57 -12 -12 -17 49 -5 32 7 65
13 73 14 9 1 21 6 28 10 16 10 14 12 37 -49 25 -66 32 -265 9 -265 -19 0 -18
-17 4 -29 11 -6 14 -13 7 -19 -13 -12 -144 -42 -185 -42 -17 0 -38 -7 -46 -15
-9 -8 -29 -15 -45 -15 -19 0 -29 -5 -29 -15 0 -8 -9 -15 -20 -15 -11 0 -20 4
-20 9 0 5 -10 11 -22 14 -17 5 -19 9 -9 20 9 12 8 22 -7 48 -21 38 -31 169
-12 169 5 0 10 -7 10 -16 0 -24 35 -12 38 14 2 12 -1 22 -7 22 -22 0 -10 18
20 30 40 17 23 33 -30 28 -75 -7 -38 42 42 56 43 8 40 26 -4 26 -17 0 -28 4
-24 9 3 5 -10 22 -29 38 -20 16 -43 46 -52 68 l-17 40 -9 -28 c-9 -25 -14 -28
-47 -25 -36 3 -36 3 -39 52 -4 56 5 66 59 66 51 0 59 13 59 101 0 68 2 78 20
84 16 5 18 10 10 31 -6 14 -10 36 -10 48 0 16 -7 26 -21 29 -19 5 -20 11 -16
84 3 54 8 78 17 78 13 0 18 -7 42 -64 l14 -34 14 49 c7 27 19 56 27 65 7 8 13
21 13 28 0 19 53 60 78 61 12 0 22 5 22 10 0 6 -5 10 -11 10 -20 0 -4 45 21
57 18 9 20 13 8 13 -10 0 -18 4 -18 9 0 13 47 41 69 41 11 0 23 5 26 10 4 6
15 8 26 5 15 -5 19 -1 19 19 0 21 5 26 24 26 13 0 36 10 51 22 27 21 27 21 21
1 -4 -12 -2 -24 4 -28 5 -3 10 -41 10 -86 0 -66 -3 -82 -20 -99 -15 -15 -18
-25 -12 -37 5 -9 7 -24 5 -34 -7 -26 0 -24 51 15 32 24 51 32 69 29 21 -4 29
1 41 25 9 17 21 32 28 35 10 3 8 9 -5 25 -19 21 -16 74 6 117 6 11 11 39 12
63 1 29 8 47 21 57 18 14 18 16 2 29 -10 7 -18 23 -18 34 0 11 -5 33 -11 49
-10 25 -12 26 -18 9 -4 -11 -18 -21 -31 -23 -14 -2 -29 -8 -34 -13 -18 -18
-23 -11 -21 26 3 46 22 58 85 49 52 -7 75 7 40 25 -11 6 -20 16 -20 23 0 7 4
6 10 -3 5 -8 10 -13 11 -10 0 3 2 16 3 28 3 25 24 44 38 36 12 -8 9 -59 -4
-72 -9 -9 -10 -15 -2 -20 16 -11 22 -35 14 -57 -11 -30 6 -46 34 -33 17 7 30
7 45 -1 20 -11 21 -10 20 41 -1 29 -3 45 -6 36 -7 -28 -43 -23 -43 6 0 37 10
56 31 56 18 0 18 18 19 480 l0 480 -4000 0 -4000 0 0 -3000z m7790 2939 c7
-12 8 -33 4 -52 -11 -47 -11 -206 0 -210 13 -4 -12 -65 -37 -92 -12 -13 -17
-32 -15 -55 2 -26 -1 -36 -14 -38 -14 -3 -18 8 -24 57 -3 33 -16 75 -27 93
-24 38 -23 62 4 99 10 14 16 29 13 32 -9 8 4 42 26 67 25 28 37 19 22 -15 -8
-17 -8 -25 -1 -25 6 0 13 9 16 20 3 11 9 20 14 20 14 0 11 28 -6 60 -14 28
-11 60 6 60 4 0 13 -9 19 -21z m110 -178 c0 -26 -17 -36 -36 -21 -11 10 -12
16 -3 26 17 20 39 17 39 -5z m-326 -46 c4 -25 11 -45 17 -45 5 0 9 -7 9 -15 0
-8 6 -15 14 -15 20 0 28 -58 14 -92 -7 -15 -16 -28 -20 -28 -13 0 -9 78 5 84
6 3 2 3 -10 0 -16 -3 -23 1 -28 16 -4 12 -15 20 -28 20 -30 0 -87 -67 -87
-102 0 -16 -9 -33 -22 -42 -28 -20 -36 -12 -14 13 16 17 16 19 -5 24 -29 8
-57 -12 -64 -44 -7 -31 -45 -49 -101 -49 -28 0 -34 -4 -34 -22 0 -13 -7 -32
-15 -42 -13 -18 -15 -18 -21 -2 -4 10 -1 29 6 44 8 15 13 32 11 39 -1 7 15 19
35 28 26 11 35 19 30 31 -4 11 -2 15 8 11 18 -7 76 20 83 39 3 8 10 14 17 14
6 0 32 23 56 50 24 28 50 50 56 50 7 0 10 8 7 20 -7 26 -7 26 -44 -11 -24 -24
-34 -28 -40 -18 -18 30 65 85 132 88 24 1 27 -3 33 -44z m249 -198 c-4 -27
-10 -37 -21 -35 -21 4 -23 49 -4 71 21 24 30 10 25 -36z m-113 -67 c11 -11 20
-31 20 -45 0 -19 4 -23 18 -19 10 4 13 2 7 -3 -6 -4 -22 -29 -35 -55 -14 -27
-28 -48 -32 -48 -5 0 -8 -8 -8 -19 0 -27 -25 -70 -51 -89 l-22 -15 21 -8 c33
-12 27 -27 -17 -40 -24 -7 -41 -19 -44 -31 -3 -11 -15 -22 -26 -25 -30 -8 -26
-26 5 -20 23 4 25 2 20 -19 -5 -17 -1 -26 14 -34 20 -11 19 -12 -16 -36 -20
-14 -43 -32 -51 -40 -8 -8 -23 -12 -33 -9 -28 9 -33 -12 -8 -30 23 -16 23 -16
4 -30 -11 -9 -42 -15 -69 -15 -37 0 -48 -3 -44 -13 3 -8 2 -18 -1 -23 -10 -14
-82 -34 -82 -23 0 5 4 9 9 9 5 0 11 17 14 38 7 45 22 111 32 135 4 10 3 17 -3
17 -6 0 -14 -9 -17 -20 -7 -23 -47 -27 -62 -7 -25 32 -13 68 37 117 62 60 89
71 108 41 8 -11 21 -21 28 -21 8 0 14 -4 14 -9 0 -12 63 2 67 16 3 7 -5 21
-17 33 -21 21 -19 40 5 40 22 0 33 30 28 72 -4 25 -2 38 6 38 6 0 10 -3 9 -7
-13 -37 78 33 103 79 7 13 12 40 10 60 -3 38 12 78 29 78 6 0 19 -9 30 -20z
m-480 -176 c0 -7 -7 -17 -16 -22 -10 -6 -14 -19 -12 -38 4 -35 33 -45 41 -13
7 26 29 21 33 -8 2 -13 -8 -32 -28 -52 -29 -28 -56 -42 -44 -23 3 5 -1 33 -9
63 -16 57 -19 121 -8 132 8 9 43 -22 43 -39z m185 25 c5 -5 -4 -9 -23 -9 -22
0 -32 5 -32 16 0 11 6 14 23 9 12 -4 26 -11 32 -16z m23 -76 c2 -14 -4 -22
-18 -26 -26 -7 -38 17 -20 38 17 20 34 14 38 -12z m-893 -27 c-11 -8 -23 -12
-28 -9 -13 8 3 23 26 23 20 0 20 0 2 -14z m-3800 -43 c13 -102 13 -192 -1
-204 -8 -6 -11 -15 -8 -20 3 -5 -17 -9 -45 -9 -27 0 -53 5 -56 10 -3 6 2 10
11 10 10 0 14 3 10 8 -4 4 -13 7 -19 7 -7 0 -12 9 -12 20 0 11 -6 24 -13 28
-10 6 -9 11 2 23 8 8 19 14 25 14 6 0 11 14 11 31 0 50 41 129 66 129 19 0 23
-8 29 -47z m2697 -37 c4 3 8 -3 8 -12 0 -16 1 -16 15 2 14 19 14 19 15 -3 0
-12 -4 -25 -10 -28 -13 -8 -13 -42 1 -47 7 -2 5 -16 -7 -40 -14 -30 -24 -38
-55 -43 -44 -8 -61 -1 -52 20 3 8 0 15 -7 15 -6 0 -8 5 -5 10 5 8 11 7 21 -1
8 -6 17 -9 21 -5 3 3 2 6 -4 6 -6 0 -14 12 -17 26 -6 22 -11 25 -33 19 -23 -5
-24 -4 -10 10 19 18 39 19 55 3 9 -9 12 -7 12 13 0 13 -4 30 -9 37 -5 8 -4 31
2 53 l10 40 20 -40 c11 -22 24 -38 29 -35z m66 -162 c-9 -9 -21 -13 -27 -9
-16 10 -3 25 22 25 20 0 20 -1 5 -16z m-182 -30 c-15 -11 -22 -11 -34 -1 -13
10 -11 13 14 18 37 7 44 1 20 -17z m2342 -11 c-7 -9 -7 -17 1 -26 8 -10 7 -18
-3 -32 -11 -15 -21 -17 -60 -11 -47 7 -47 8 -40 39 9 46 10 46 63 44 38 -2 47
-5 39 -14z m-4881 1 c-3 -3 -12 -4 -19 -1 -8 3 -5 6 6 6 11 1 17 -2 13 -5z
m-211 -28 c-3 -18 -1 -23 9 -20 24 10 24 -11 -1 -23 -13 -6 -22 -8 -19 -3 9
15 -23 31 -52 25 l-28 -7 25 21 c14 12 33 19 43 17 9 -2 17 0 17 5 0 5 2 9 5
9 3 0 3 -11 1 -24z m251 18 c-3 -3 -12 -4 -19 -1 -8 3 -5 6 6 6 11 1 17 -2 13
-5z m2458 -4 c-3 -5 -14 -10 -23 -9 -14 0 -13 2 3 9 27 11 27 11 20 0z m-2795
-10 c-20 -13 -33 -13 -25 0 3 6 14 10 23 10 15 0 15 -2 2 -10z m150 0 c0 -5
-8 -10 -17 -10 -15 0 -16 2 -3 10 19 12 20 12 20 0z m70 0 c0 -5 -7 -10 -16
-10 -8 0 -12 5 -9 10 3 6 10 10 16 10 5 0 9 -4 9 -10z m104 -21 c-3 -5 -10 -7
-15 -3 -5 3 -7 10 -3 15 3 5 10 7 15 3 5 -3 7 -10 3 -15z m2783 15 c-3 -3 -12
-4 -19 -1 -8 3 -5 6 6 6 11 1 17 -2 13 -5z m-77 -20 c0 -2 -7 -4 -15 -4 -8 0
-15 4 -15 10 0 5 7 7 15 4 8 -4 15 -8 15 -10z m-93 0 c-3 -3 -12 -4 -19 -1 -8
3 -5 6 6 6 11 1 17 -2 13 -5z m39 -54 c27 0 16 -54 -18 -83 -17 -16 -34 -24
-37 -20 -3 4 -13 9 -21 11 -8 2 -17 8 -18 13 -2 5 -8 7 -13 3 -15 -9 -10 56 5
71 7 8 16 12 18 10 2 -2 17 -1 34 4 16 4 31 4 32 -1 2 -4 10 -8 18 -8z m-2508
-2 c-3 -7 -22 -14 -44 -15 l-39 -2 30 14 c38 18 58 19 53 3z m-193 -86 c-7
-35 -29 -47 -84 -47 -35 0 -48 5 -62 25 -18 24 -18 27 -1 63 16 37 19 39 55
34 21 -3 37 -1 37 5 0 5 14 -4 31 -21 24 -25 29 -37 24 -59z m4631 -43 c8 -14
-14 -29 -43 -29 -27 0 -30 15 -5 29 23 14 39 14 48 0z m-2377 -304 c1 -74 9
-108 25 -106 14 3 56 -12 56 -19 0 -4 -9 -10 -20 -13 -13 -3 -20 0 -20 9 0 13
-28 19 -75 16 -36 -3 -48 32 -40 120 6 70 9 78 25 73 14 -5 20 1 26 27 l8 33
7 -30 c4 -16 7 -66 8 -110z m-1908 24 c6 -46 11 -97 12 -112 1 -17 12 -36 27
-48 l25 -19 -31 11 c-17 5 -35 9 -40 8 -5 -1 -27 -1 -49 0 -30 1 -36 4 -24 11
13 7 15 20 11 55 -3 32 -1 45 8 45 9 0 10 3 1 14 -13 15 4 66 22 66 5 0 6 7 3
16 -4 9 -4 26 0 36 11 36 25 3 35 -83z m4129 91 c0 -5 -4 -10 -10 -10 -5 0
-10 5 -10 10 0 6 5 10 10 10 6 0 10 -4 10 -10z m0 -40 c0 -5 -4 -10 -10 -10
-5 0 -10 5 -10 10 0 6 5 10 10 10 6 0 10 -4 10 -10z m-3550 -10 c0 -5 -4 -10
-10 -10 -5 0 -10 5 -10 10 0 6 5 10 10 10 6 0 10 -4 10 -10z m41 -113 c-5 -12
-18 -23 -30 -25 -27 -4 -27 6 0 35 26 27 41 22 30 -10z m-18 -54 c-7 -2 -19
-2 -25 0 -7 3 -2 5 12 5 14 0 19 -2 13 -5z m1203 -38 c16 -16 7 -19 -20 -9 -9
3 -13 10 -10 15 7 12 13 11 30 -6z m95 -25 c4 0 6 -7 3 -15 -3 -8 0 -17 8 -20
9 -4 14 -21 14 -45 0 -33 -2 -37 -14 -28 -10 9 -18 9 -32 1 -14 -10 -20 -7
-30 12 -7 13 -10 31 -7 39 4 11 1 16 -10 16 -12 0 -13 3 -4 14 7 8 22 12 34
10 12 -2 16 -2 10 2 -19 8 -16 27 3 20 9 -3 20 -6 25 -6z m2866 -27 c-17 -18
-22 -8 -11 22 5 12 10 13 17 6 8 -8 6 -16 -6 -28z m-4777 -3 c18 -12 2 -12
-25 0 -13 6 -15 9 -5 9 8 0 22 -4 30 -9z m10 -31 c0 -5 7 -9 15 -9 8 0 15 -4
15 -10 0 -5 -5 -10 -11 -10 -8 0 -8 -5 1 -15 10 -13 9 -15 -9 -15 -12 0 -19
-4 -16 -10 3 -5 -1 -10 -9 -10 -8 0 -18 5 -22 11 -3 6 -14 9 -23 6 -12 -3 -16
3 -15 28 1 18 4 36 7 42 7 12 67 5 67 -8z m216 -141 c10 -96 11 -128 2 -128
-55 0 -71 2 -63 8 6 4 12 45 14 92 3 92 5 100 26 100 9 0 15 -22 21 -72z m903
63 c12 -8 13 -14 3 -36 -13 -29 -38 -31 -55 -4 -22 35 15 63 52 40z m-2359
-22 c0 -4 -7 -6 -15 -3 -8 4 -15 10 -15 15 0 4 7 6 15 3 8 -4 15 -10 15 -15z
m1764 5 c20 -8 20 -24 2 -58 -13 -25 -14 -25 -30 -8 -23 27 -20 72 5 72 4 0
14 -3 23 -6z m1134 -16 c6 -13 13 -48 15 -80 4 -52 3 -56 -19 -61 -28 -5 -34
8 -34 71 0 52 9 92 19 92 4 0 13 -10 19 -22z m-138 -52 c0 -13 -7 -29 -15 -36
-9 -7 -16 -32 -17 -59 l-1 -46 -4 45 c-2 25 -8 55 -15 67 -15 30 -4 53 27 53
20 0 25 -5 25 -24z m3290 -46 c0 -5 -5 -10 -11 -10 -5 0 -7 5 -4 10 3 6 8 10
11 10 2 0 4 -4 4 -10z m-872 -30 c5 -34 -17 -102 -30 -94 -5 4 -13 3 -17 -2
-11 -15 -50 -34 -70 -34 -11 0 -22 -4 -25 -9 -4 -5 -24 -12 -46 -16 -22 -4
-46 -13 -53 -20 -7 -7 -37 -15 -67 -18 -53 -6 -55 -5 -86 30 -37 41 -35 56 7
73 16 7 29 16 29 21 0 5 12 7 26 5 14 -3 33 -1 42 3 55 28 195 77 242 84 37 6
45 3 48 -23z m-3571 4 c8 -20 -8 -48 -30 -52 -18 -4 -34 39 -22 57 10 17 45
13 52 -5z m386 -38 c3 -7 1 -19 -4 -27 -18 -29 -10 -37 26 -29 19 4 33 4 30 0
-3 -5 -22 -11 -44 -15 l-38 -6 5 -50 c2 -27 0 -49 -5 -49 -8 0 -10 11 -13 85
-1 17 -6 43 -12 59 -10 24 -9 31 6 42 20 14 42 9 49 -10z m523 -1 c4 -9 1 -28
-5 -43 -6 -15 -12 -48 -13 -74 -2 -67 -18 -60 -18 8 0 30 -5 64 -11 75 -7 15
-7 24 2 35 15 18 38 18 45 -1z m-3386 -17 c0 -18 -2 -20 -9 -8 -6 8 -7 18 -5
22 9 14 14 9 14 -14z m114 6 c16 -2 43 -8 60 -13 17 -5 51 -15 76 -22 25 -7
57 -23 71 -36 14 -13 39 -25 56 -26 26 -2 29 -5 23 -22 -9 -25 -73 -32 -140
-15 -86 22 -125 34 -135 42 -5 4 -19 8 -32 8 -30 0 -63 34 -63 64 0 26 16 38
40 29 8 -3 28 -7 44 -9z m2903 -9 c0 -8 -4 -12 -9 -9 -5 3 -6 10 -3 15 9 13
12 11 12 -6z m91 -11 c-11 -23 -13 -24 -19 -7 -5 16 2 24 28 32 2 1 -3 -11 -9
-25z m681 -51 c-15 -18 -48 -17 -55 2 -4 9 -1 29 6 45 l13 30 23 -32 c18 -24
21 -35 13 -45z m-1328 5 c-2 -26 2 -44 11 -49 10 -6 8 -9 -7 -9 -18 0 -20 6
-18 53 1 28 2 54 3 56 0 2 3 1 7 -3 4 -4 6 -25 4 -48z m759 32 c0 -5 -4 -10
-9 -10 -6 0 -13 5 -16 10 -3 6 1 10 9 10 9 0 16 -4 16 -10z m-883 -26 c-3 -35
-29 -53 -51 -35 -26 22 -20 49 12 54 15 2 30 5 34 6 4 0 6 -11 5 -25z m711 19
c-16 -2 -40 -2 -55 0 -16 2 -3 4 27 4 30 0 43 -2 28 -4z m137 -3 c3 -5 1 -10
-4 -10 -6 0 -11 5 -11 10 0 6 2 10 4 10 3 0 8 -4 11 -10z m-569 -18 c-10 -2
-22 0 -28 6 -6 6 0 7 19 4 21 -5 23 -7 9 -10z m951 2 c-3 -3 -12 -4 -19 -1 -8
3 -5 6 6 6 11 1 17 -2 13 -5z m-592 -15 c-6 11 -4 13 9 8 10 -4 32 -7 48 -7
52 0 27 -8 -47 -15 -64 -6 -68 -6 -50 8 15 12 23 13 34 4 12 -10 13 -9 6 2z
m-73 -6 c-6 -2 -10 -9 -6 -14 3 -5 -2 -9 -10 -9 -17 0 -21 12 -9 23 3 4 13 7
22 6 11 0 12 -2 3 -6z m278 -15 c0 -13 -23 -5 -28 10 -2 7 2 10 12 6 9 -3 16
-11 16 -16z m-43 6 c-3 -3 -12 -4 -19 -1 -8 3 -5 6 6 6 11 1 17 -2 13 -5z
m470 -10 c-3 -3 -12 -4 -19 -1 -8 3 -5 6 6 6 11 1 17 -2 13 -5z m-1177 -64 c0
-5 -2 -10 -4 -10 -3 0 -8 5 -11 10 -3 6 -1 10 4 10 6 0 11 -4 11 -10z m37 -6
c-3 -3 -12 -4 -19 -1 -8 3 -5 6 6 6 11 1 17 -2 13 -5z m430 -16 c-3 -8 -6 -5
-6 6 -1 11 2 17 5 13 3 -3 4 -12 1 -19z m4046 -6 c2 -10 -1 -28 -5 -42 -5 -13
-7 -34 -4 -46 4 -13 2 -26 -4 -29 -6 -4 -10 6 -10 23 0 17 -6 32 -15 36 -18 6
-20 57 -4 73 15 15 37 6 42 -15z m-4106 -8 c-3 -3 -12 -4 -19 -1 -8 3 -5 6 6
6 11 1 17 -2 13 -5z m1571 -93 c3 -8 -1 -12 -9 -9 -7 2 -15 10 -17 17 -3 8 1
12 9 9 7 -2 15 -10 17 -17z m-2738 -20 c0 -12 -20 -25 -27 -18 -7 7 6 27 18
27 5 0 9 -4 9 -9z m1707 -57 c8 -20 -13 -42 -27 -28 -12 12 -3 44 11 44 5 0
12 -7 16 -16z m-657 -4 c0 -5 -4 -10 -9 -10 -6 0 -13 5 -16 10 -3 6 1 10 9 10
9 0 16 -4 16 -10z m310 -6 c0 -8 -5 -25 -11 -36 -10 -19 -9 -20 15 -14 30 7
31 5 11 -38 -14 -28 -20 -32 -58 -33 -23 0 -32 1 -20 4 14 3 20 9 16 19 -3 8
0 21 7 29 10 12 10 21 1 41 -6 14 -9 30 -6 35 10 15 45 10 45 -7z m-319 -46
c4 -25 2 -35 -8 -35 -14 0 -23 27 -21 60 2 30 23 12 29 -25z m234 22 c-6 -10
-76 -32 -83 -26 -6 6 51 34 71 35 10 1 16 -3 12 -9z m357 -16 c3 -3 4 -14 1
-25 -5 -18 -6 -19 -19 -2 -7 10 -14 21 -14 26 0 8 24 10 32 1z m-322 -18 c0
-3 -4 -8 -10 -11 -5 -3 -10 -1 -10 4 0 6 5 11 10 11 6 0 10 -2 10 -4z m377
-48 c-3 -7 -5 -2 -5 12 0 14 2 19 5 13 2 -7 2 -19 0 -25z m-392 12 c-3 -5 -12
-10 -18 -10 -7 0 -6 4 3 10 19 12 23 12 15 0z m-245 -10 c0 -5 -7 -10 -16 -10
-8 0 -12 5 -9 10 3 6 10 10 16 10 5 0 9 -4 9 -10z m365 0 l-40 -7 35 -3 c26
-2 29 -4 12 -7 -13 -3 -30 -2 -38 1 -27 10 -4 26 34 25 l37 -2 -40 -7z m221
-15 c-4 -24 -16 -30 -16 -7 0 12 4 22 9 22 5 0 8 -7 7 -15z m-1036 -5 c0 -5
-5 -10 -11 -10 -5 0 -7 5 -4 10 3 6 8 10 11 10 2 0 4 -4 4 -10z m3463 -14 c3
-8 -1 -17 -9 -20 -9 -4 -14 1 -14 14 0 23 15 27 23 6z m-3515 -6 c48 0 52 -2
52 -24 0 -23 -1 -23 -110 -22 -107 0 -134 7 -88 22 12 3 29 13 37 21 8 8 23
12 35 9 12 -3 45 -6 74 -6z m475 4 c-7 -3 -11 -11 -9 -17 1 -7 1 -9 -1 -4 -3
4 -12 7 -21 8 -14 0 -13 2 3 9 11 5 25 9 30 9 6 -1 5 -3 -2 -5z m47 -4 c13 -8
13 -10 -2 -10 -9 0 -20 5 -23 10 -8 13 5 13 25 0z m167 -42 c-3 -7 -5 -2 -5
12 0 14 2 19 5 13 2 -7 2 -19 0 -25z m68 22 c-3 -5 -11 -10 -16 -10 -6 0 -7 5
-4 10 3 6 11 10 16 10 6 0 7 -4 4 -10z m102 4 c-3 -3 -12 -4 -19 -1 -8 3 -5 6
6 6 11 1 17 -2 13 -5z m240 0 c-3 -3 -12 -4 -19 -1 -8 3 -5 6 6 6 11 1 17 -2
13 -5z m-380 -56 c-3 -7 -5 -2 -5 12 0 14 2 19 5 13 2 -7 2 -19 0 -25z m3391
5 c6 -19 -28 -29 -39 -12 -5 8 -9 18 -9 22 0 13 43 3 48 -10z m-641 -15 c-3
-8 -6 -5 -6 6 -1 11 2 17 5 13 3 -3 4 -12 1 -19z m756 8 c4 4 11 -5 17 -20 9
-25 12 -26 60 -20 56 7 62 0 31 -44 -30 -43 -35 -95 -11 -117 19 -17 21 -17
40 0 13 12 17 22 11 29 -6 6 -6 26 -1 46 l8 35 1 -37 c1 -20 6 -40 11 -43 19
-12 12 -73 -10 -85 -11 -6 -20 -15 -20 -20 0 -6 9 -10 20 -10 27 0 25 -17 -2
-26 -13 -4 -29 -15 -36 -25 -11 -16 -25 -19 -85 -16 -40 1 -84 -1 -99 -6 -24
-6 -28 -4 -28 13 0 11 7 20 15 20 32 0 66 24 63 44 -4 25 -30 32 -49 14 -17
-16 -49 -22 -49 -9 0 5 4 13 10 16 5 3 14 14 19 24 8 15 6 17 -17 13 -22 -3
-28 1 -29 17 -1 15 5 21 30 23 26 2 33 8 35 30 2 15 16 38 33 52 37 31 37 46
-1 71 -16 11 -30 23 -30 27 0 10 34 15 46 6 6 -4 14 -5 17 -2z m-6103 -20 c0
-2 3 -11 6 -20 5 -12 0 -16 -20 -16 -14 0 -26 2 -26 4 0 2 -3 11 -6 20 -5 12
0 16 20 16 14 0 26 -2 26 -4z m1920 -271 c-1 -152 -5 -255 -11 -255 -5 0 -9
15 -9 33 0 24 -3 28 -10 17 -8 -12 -11 -13 -19 -1 -5 8 -11 9 -15 3 -4 -7 -20
-5 -45 6 l-38 17 -7 74 c-8 98 -8 346 1 354 3 4 39 7 80 7 l74 0 -1 -255z
m450 246 c0 -13 -38 -21 -107 -21 -58 0 -73 6 -56 23 10 10 163 8 163 -2z
m206 -18 c9 15 18 17 47 12 39 -8 45 -21 27 -56 -9 -16 -20 -19 -60 -18 -36 2
-47 6 -43 16 6 15 -13 18 -22 3 -3 -5 -23 -10 -43 -9 -20 0 -31 3 -24 6 6 2
12 13 12 24 0 17 11 24 34 20 4 -1 14 3 20 9 7 5 16 7 19 3 4 -3 7 0 8 8 1 8
4 3 8 -11 6 -23 8 -23 17 -7z m170 11 c-3 -8 -2 -13 3 -10 10 7 61 -31 61 -45
0 -5 -18 -9 -41 -9 -34 0 -40 -3 -35 -16 8 -21 -1 -34 -19 -28 -8 4 -12 10 -9
15 3 5 11 6 17 2 7 -3 4 3 -5 14 -18 19 -24 73 -11 86 3 4 15 7 26 7 13 0 17
-5 13 -16z m3244 1 c0 -9 -9 -15 -25 -15 -16 0 -25 6 -25 15 0 9 9 15 25 15
16 0 25 -6 25 -15z m-4431 -187 c-1 -160 -3 -187 -13 -157 -6 20 -16 42 -23
50 -6 8 -14 26 -18 41 -4 15 -16 30 -26 33 -13 4 -19 16 -19 36 0 16 -5 29
-11 29 -6 0 -9 -7 -5 -15 3 -8 1 -15 -4 -15 -6 0 -10 11 -10 24 0 12 -5 38
-12 56 -9 26 -9 35 0 38 7 2 13 18 13 35 2 31 2 31 6 5 3 -20 10 -28 24 -28
10 0 19 4 19 8 0 5 10 14 23 20 21 10 21 11 -6 11 -44 1 -21 21 24 21 l39 0
-1 -192z m181 15 c-1 -141 -4 -182 -15 -197 -8 -11 -15 -26 -15 -34 0 -16 -28
-41 -46 -42 -6 0 -17 14 -24 30 -7 17 -16 30 -21 30 -5 0 -10 12 -10 28 l-1
27 -7 -30 c-4 -17 -10 51 -14 158 -4 103 -5 192 -2 197 4 6 40 10 81 10 l74 0
0 -177z m-1610 157 c0 -5 -4 -10 -10 -10 -5 0 -10 5 -10 10 0 6 5 10 10 10 6
0 10 -4 10 -10z m-147 -11 c35 2 77 -26 77 -50 0 -11 7 -19 15 -19 14 0 20
-12 16 -34 -1 -5 7 -6 17 -4 15 4 18 1 14 -18 -4 -20 0 -24 19 -25 22 0 23 -1
4 -9 -21 -8 -22 -8 30 -25 19 -6 19 -7 -5 -25 l-25 -20 23 0 c15 0 22 -6 22
-21 0 -11 -4 -18 -8 -15 -4 2 -14 1 -22 -5 -11 -6 -8 -9 13 -9 18 0 27 -5 27
-16 0 -8 -4 -13 -8 -10 -5 3 -9 -1 -9 -9 0 -8 4 -15 9 -15 13 0 9 -28 -4 -33
-10 -4 -9 -8 2 -16 12 -9 13 -14 2 -31 -7 -11 -8 -20 -3 -20 4 0 8 -71 7 -157
-1 -171 1 -179 54 -189 17 -4 33 -11 37 -17 3 -6 1 -7 -5 -3 -7 4 -12 1 -12
-8 0 -18 -40 -22 -57 -5 -6 6 -27 9 -48 7 -47 -4 -73 -36 -80 -97 -2 -24 -5
-44 -7 -46 -2 -1 -51 -6 -110 -10 -87 -6 -108 -4 -108 7 -1 8 -4 7 -11 -4 -6
-11 -22 -18 -39 -18 -33 0 -39 14 -14 28 22 12 36 79 18 86 -28 11 -13 24 32
29 46 5 79 29 48 35 -22 5 -12 26 14 30 12 2 22 8 22 13 0 6 4 8 9 4 5 -3 12
-1 15 4 3 5 -1 12 -10 15 -18 7 -18 -4 1 296 2 25 6 95 10 155 4 61 13 125 21
142 11 24 12 38 5 52 -8 15 -7 20 6 25 23 9 4 26 -33 30 -18 2 -30 10 -33 21
-2 14 1 16 15 10 11 -4 31 -7 47 -6z m2397 -15 c0 -8 3 -13 8 -13 19 3 32 -2
32 -12 0 -8 -4 -8 -12 -1 -7 5 -22 6 -33 2 -19 -7 -25 -7 -62 6 -16 5 -15 7 6
23 26 20 61 17 61 -5z m50 20 c0 -8 -19 -13 -24 -6 -3 5 1 9 9 9 8 0 15 -2 15
-3z m483 -7 c30 -3 20 -22 -15 -28 -34 -5 -62 4 -87 28 -11 12 -6 13 35 8 27
-4 57 -8 67 -8z m2525 -4 c2 -9 -7 -13 -27 -13 -21 0 -31 5 -31 16 0 19 51 16
58 -3z m-3340 -15 c7 -7 12 -16 12 -20 0 -13 -37 -9 -49 5 -20 24 14 38 37 15z
m3210 -17 c3 -8 -1 -12 -9 -9 -7 2 -15 10 -17 17 -3 8 1 12 9 9 7 -2 15 -10
17 -17z m-5119 -15 c9 -10 8 -15 -3 -19 -8 -3 -17 0 -20 8 -2 7 -15 15 -28 18
-18 3 -16 5 8 6 17 0 37 -5 43 -13z m5231 4 c0 -5 -4 -10 -10 -10 -5 0 -10 5
-10 10 0 6 5 10 10 10 6 0 10 -4 10 -10z m27 -12 c-3 -8 -6 -5 -6 6 -1 11 2
17 5 13 3 -3 4 -12 1 -19z m-5509 0 c-6 -18 -48 -19 -48 -2 0 8 11 14 26 14
16 0 24 -5 22 -12z m5854 -4 c17 -11 6 -24 -19 -24 -14 0 -23 -3 -20 -7 9 -9
-12 -33 -29 -33 -21 0 -37 49 -22 67 11 13 66 11 90 -3z m79 -5 c20 -20 20
-21 2 -34 -21 -17 -49 -19 -57 -6 -8 13 11 61 24 61 5 0 19 -9 31 -21z m-191
-18 c0 -15 -29 -33 -45 -27 -18 7 -20 43 -2 49 14 5 47 -10 47 -22z m-3023 5
c4 -3 -14 -6 -38 -7 -43 -1 -43 -1 -14 -10 17 -6 48 -8 71 -5 57 7 87 -2 81
-25 -4 -15 0 -19 21 -19 23 1 25 2 10 11 -24 13 -23 29 2 29 12 0 20 -7 21
-17 0 -15 2 -15 9 2 7 15 9 10 9 -22 1 -35 -2 -43 -17 -43 -15 0 -17 -6 -14
-34 3 -25 -2 -40 -17 -55 -12 -12 -25 -21 -31 -21 -5 0 -10 -4 -10 -10 0 -5
-7 -10 -15 -10 -8 0 -15 -4 -15 -10 0 -17 -67 -12 -74 6 -3 8 -10 12 -16 9 -5
-3 -10 -1 -10 4 0 6 -4 11 -10 11 -19 0 -50 40 -52 67 -2 15 -10 28 -20 31
-12 3 -19 15 -19 33 -1 16 -2 34 -3 41 -1 6 14 16 32 20 38 10 44 23 7 16 -14
-3 -25 -2 -25 3 0 14 124 18 137 5z m-2407 -26 c0 -14 -18 -21 -25 -9 -4 6
-18 8 -31 5 -18 -5 -24 -2 -24 10 0 10 5 14 15 11 8 -4 17 -2 20 3 7 12 45 -6
45 -20z m2212 -21 c1 -28 1 -53 -1 -55 -2 -2 -51 -4 -108 -4 l-103 0 0 55 0
55 104 0 104 0 4 -51z m3453 41 c3 -5 1 -10 -4 -10 -6 0 -11 5 -11 10 0 6 2
10 4 10 3 0 8 -4 11 -10z m-3717 -12 c7 -7 12 -21 12 -31 0 -16 -2 -17 -16 -7
-24 21 -37 50 -21 50 7 0 18 -5 25 -12z m812 2 c0 -5 -4 -10 -10 -10 -5 0 -10
5 -10 10 0 6 5 10 10 10 6 0 10 -4 10 -10z m2371 0 c5 0 9 -7 9 -15 0 -8 -6
-15 -14 -15 -8 0 -21 -3 -29 -6 -19 -7 -32 27 -15 38 7 4 19 6 26 3 8 -3 18
-5 23 -5z m-5665 -25 c5 -11 10 -12 24 -3 22 14 52 3 48 -18 -5 -29 -35 -41
-54 -22 -16 16 -18 15 -34 -4 -17 -22 -40 -18 -40 8 0 8 -9 14 -21 14 -28 0
-19 23 12 31 40 11 59 10 65 -6z m5534 -5 c0 -21 -15 -27 -25 -10 -7 12 2 30
16 30 5 0 9 -9 9 -20z m-3303 -27 c-3 -10 -5 -4 -5 12 0 17 2 24 5 18 2 -7 2
-21 0 -30z m1013 15 c0 -35 -11 -68 -22 -68 -5 0 -8 6 -6 12 3 7 -1 18 -8 25
-17 18 -6 53 17 53 13 0 19 -7 19 -22z m50 -13 c0 -8 -4 -15 -10 -15 -5 0 -10
7 -10 15 0 8 5 15 10 15 6 0 10 -7 10 -15z m2730 -24 c0 -17 -18 -31 -40 -31
-5 0 -14 9 -20 19 -7 15 -6 23 6 35 19 20 54 5 54 -23z m129 30 c10 -7 8 -12
-10 -25 -31 -21 -49 -20 -49 3 0 27 32 39 59 22z m-461 -19 c2 -7 -6 -12 -17
-12 -12 0 -21 6 -21 14 0 17 32 15 38 -2z m212 3 c20 -24 -2 -39 -55 -41 -54
-2 -60 15 -12 39 41 20 52 21 67 2z m290 5 c0 -5 -4 -10 -10 -10 -5 0 -10 5
-10 10 0 6 5 10 10 10 6 0 10 -4 10 -10z m-565 -10 c3 -5 1 -10 -4 -10 -6 0
-11 5 -11 10 0 6 2 10 4 10 3 0 8 -4 11 -10z m-3316 -73 c-1 -23 -4 -33 -6
-22 -11 42 -52 48 -54 8 -1 -19 -3 -22 -6 -10 -3 11 -2 34 1 52 6 32 8 33 36
23 27 -9 30 -14 29 -51z m2847 48 c6 -14 -11 -45 -25 -45 -3 0 -12 10 -20 21
-11 18 -11 23 1 30 20 13 38 11 44 -6z m-73 -9 c7 -18 -11 -36 -29 -29 -8 3
-14 14 -14 24 0 22 35 26 43 5z m127 -8 c0 -13 -23 -5 -28 10 -2 7 2 10 12 6
9 -3 16 -11 16 -16z m-5192 -9 c4 -21 -26 -51 -47 -47 -20 4 -26 35 -10 54 16
19 53 14 57 -7z m3277 9 c14 -6 25 -14 25 -18 0 -9 -29 -35 -33 -29 -37 65
-36 67 8 47z m2335 -14 c-20 -21 -22 -27 -10 -34 10 -6 21 -4 33 7 28 26 45 1
18 -26 -12 -12 -21 -17 -21 -12 0 5 -6 9 -12 8 -42 -1 -49 3 -45 31 2 16 13
32 28 39 34 18 36 16 9 -13z m-5487 1 c19 -8 37 -11 41 -8 3 4 6 -3 6 -14 0
-18 -6 -21 -37 -21 -91 -1 -122 15 -91 46 16 16 38 15 81 -3z m677 -15 c0 -4
-12 -15 -26 -25 -25 -16 -27 -16 -43 0 -15 15 -15 17 2 29 17 13 67 10 67 -4z
m93 0 c19 -16 -5 -38 -44 -38 -31 -1 -39 3 -39 17 0 26 21 41 49 34 14 -3 30
-9 34 -13z m3585 13 c-1 -5 2 -69 7 -143 5 -74 10 -127 13 -117 2 9 11 17 20
17 15 0 15 2 2 10 -8 5 -10 10 -4 10 7 0 14 9 17 20 3 13 0 20 -8 20 -18 0
-26 15 -19 34 8 21 64 22 64 2 0 -8 -5 -18 -10 -21 -15 -9 -2 -25 15 -19 17 7
55 -30 55 -54 0 -10 -5 -23 -12 -30 -9 -9 -8 -13 4 -17 10 -4 14 -14 11 -26
-4 -14 0 -19 16 -19 14 0 19 -5 15 -15 -4 -8 -2 -15 4 -15 6 0 8 -8 5 -18 -3
-13 5 -25 22 -36 20 -13 24 -21 16 -29 -6 -6 -11 -23 -11 -39 0 -39 -21 -80
-38 -73 -7 3 -29 5 -47 5 -29 0 -34 4 -40 30 -17 78 -124 62 -109 -16 5 -27 3
-34 -9 -34 -23 0 -29 60 -21 226 3 82 7 170 8 196 0 27 4 48 7 48 3 0 6 8 6
18 -1 58 4 92 13 92 6 0 9 -3 8 -7z m1342 -9 c0 -8 -6 -14 -14 -14 -8 0 -21
-3 -30 -6 -11 -4 -16 0 -16 13 0 15 7 20 30 21 20 0 30 -4 30 -14z m-570 -19
c16 -20 4 -33 -35 -37 -38 -4 -48 27 -13 41 32 13 34 13 48 -4z m1277 -12 c-3
-3 -11 -2 -17 2 -9 6 -9 10 1 16 14 8 27 -7 16 -18z m-1847 -4 c0 -16 -5 -20
-20 -16 -24 6 -27 -8 -3 -17 9 -4 20 -1 24 5 10 17 39 3 39 -20 0 -16 -7 -19
-49 -19 -46 0 -49 2 -55 29 -3 17 -12 29 -21 29 -18 0 -19 -12 -3 -28 17 -17
1 -30 -42 -34 -30 -3 -35 0 -38 21 -3 21 0 23 22 19 14 -3 26 -1 26 3 0 5 -4
9 -10 9 -5 0 -10 9 -10 20 0 18 7 20 70 20 65 0 70 -2 70 -21z m385 -4 c0 -17
-7 -20 -45 -20 -39 0 -45 3 -48 23 -3 22 -1 23 45 20 40 -3 48 -6 48 -23z m91
14 c3 -6 -1 -18 -10 -27 -15 -15 -17 -15 -32 0 -19 19 -11 38 16 38 10 0 22
-5 26 -11z m-2739 -13 c0 -8 -8 -11 -19 -8 -10 2 -18 8 -18 13 0 5 8 9 18 9
10 0 19 -6 19 -14z m823 10 c0 -3 -4 -8 -10 -11 -5 -3 -10 -1 -10 4 0 6 5 11
10 11 6 0 10 -2 10 -4z m2689 -22 c-12 -15 -39 -19 -39 -6 0 15 22 30 36 25
11 -4 12 -9 3 -19z m-53 -18 c-1 -6 -7 -20 -13 -30 -10 -19 -11 -19 -33 2 -13
12 -27 19 -32 16 -5 -3 -15 -3 -23 0 -20 7 -7 38 14 32 9 -3 22 -2 30 3 17 11
60 -6 57 -23z m-5770 -1 c-4 -14 -2 -25 3 -25 15 0 22 -32 10 -46 -11 -14 -9
-16 21 -18 8 -1 15 -8 15 -16 0 -11 -10 -15 -35 -14 -67 2 -70 3 -70 28 0 19
-4 22 -23 19 -31 -6 -55 22 -40 45 6 10 15 16 20 15 76 -14 87 -15 76 -3 -14
16 -6 40 14 40 11 0 13 -7 9 -25z m96 13 c11 -19 -1 -28 -38 -28 -23 0 -34 5
-34 14 0 23 59 34 72 14z m522 -15 c8 -20 -1 -33 -25 -33 -24 0 -35 25 -19 45
13 16 36 10 44 -12z m65 13 c15 -18 3 -46 -20 -46 -25 0 -35 26 -19 45 15 19
24 19 39 1z m574 -5 c4 -4 1 -15 -7 -24 -15 -14 -14 -16 11 -14 22 2 28 -2 28
-18 0 -17 -7 -20 -42 -22 -47 -1 -61 10 -42 33 10 13 10 17 -1 24 -17 10 -36
-8 -36 -34 1 -16 -6 -20 -36 -21 -45 -2 -61 6 -52 28 7 19 40 23 46 6 2 -7 9
-5 17 5 12 14 12 16 -2 11 -18 -8 -31 10 -23 31 5 13 18 15 68 10 34 -4 66
-10 71 -15z m-483 -1 c0 -6 10 -5 25 2 29 13 49 1 40 -25 -9 -23 -32 -28 -49
-11 -9 9 -17 10 -21 4 -11 -18 -45 -11 -45 8 0 10 3 22 7 25 10 11 43 8 43 -3z
m1594 -11 c-6 -11 -24 -2 -24 11 0 5 7 7 15 4 8 -4 12 -10 9 -15z m-187 -21
c-3 -7 -5 -2 -5 12 0 14 2 19 5 13 2 -7 2 -19 0 -25z m450 19 c3 -4 3 -14 -1
-23 -4 -12 -13 -14 -32 -10 -15 4 -23 3 -20 -2 3 -6 -6 -12 -21 -15 -25 -5
-26 -4 -9 9 18 13 17 14 -9 26 -24 11 -25 13 -8 20 19 8 90 4 100 -5z m119
-10 c7 -7 15 -22 18 -33 5 -16 2 -23 -14 -27 -11 -3 -20 -2 -20 1 0 4 -11 8
-25 8 -14 1 -25 -2 -25 -7 0 -5 -4 -9 -10 -9 -5 0 -10 9 -10 20 0 11 7 20 15
20 8 0 15 5 15 11 0 6 -9 9 -20 6 -22 -6 -29 18 -7 26 18 8 71 -2 83 -16z
m4039 13 c3 -5 -1 -10 -9 -10 -8 0 -18 5 -21 10 -3 6 1 10 9 10 8 0 18 -4 21
-10z m-4455 -9 c0 -5 -7 -11 -15 -15 -9 -3 -15 0 -15 9 0 8 7 15 15 15 8 0 15
-4 15 -9z m3204 -5 c-3 -8 3 -15 14 -18 13 -4 19 -14 18 -28 -1 -19 -8 -23
-41 -26 -40 -4 -40 -4 -15 12 l25 15 -27 -6 c-16 -3 -28 -1 -28 5 0 5 11 10
25 10 14 0 25 5 25 10 0 6 -7 10 -15 10 -13 0 -14 3 -3 15 16 18 29 19 22 1z
m-5719 -26 c0 -16 -6 -26 -19 -28 -25 -5 -39 12 -31 38 10 31 50 24 50 -10z
m2432 24 c-3 -3 -12 -4 -19 -1 -8 3 -5 6 6 6 11 1 17 -2 13 -5z m2706 -18 c8
-20 -12 -33 -50 -34 -35 -1 -48 10 -39 33 7 20 82 20 89 1z m82 -11 c0 -30
-39 -27 -43 3 -3 20 0 23 20 20 15 -2 23 -10 23 -23z m110 6 c0 -21 -50 -32
-71 -17 -26 19 -7 38 34 34 24 -2 37 -8 37 -17z m567 4 c0 -5 -5 -11 -11 -13
-6 -2 -11 4 -11 13 0 9 5 15 11 13 6 -2 11 -8 11 -13z m-5622 -19 c0 -16 -34
-31 -50 -21 -22 14 -10 35 20 35 19 0 30 -5 30 -14z m4425 -21 c0 -28 -29 -25
-33 3 -3 19 0 23 15 20 10 -2 18 -12 18 -23z m101 14 c3 -6 0 -17 -8 -25 -18
-18 -68 -3 -68 21 0 18 65 22 76 4z m-3976 -12 c0 -22 -23 -37 -57 -37 -25 0
-33 4 -33 18 0 27 9 32 52 32 24 0 38 -5 38 -13z m90 -5 c0 -10 -3 -22 -7 -26
-5 -4 -8 -22 -8 -39 0 -23 -5 -33 -19 -35 -33 -7 -42 15 -16 43 13 14 18 25
12 25 -13 0 -17 32 -5 43 14 14 43 7 43 -11z m105 -7 c0 -26 -50 -39 -70 -18
-20 19 -19 31 3 36 35 9 67 1 67 -18z m1495 4 c0 -5 -4 -9 -10 -9 -5 0 -10 7
-10 16 0 8 5 12 10 9 6 -3 10 -10 10 -16z m278 -1 c-3 -7 -11 -13 -18 -13 -7
0 -15 6 -17 13 -3 7 4 12 17 12 13 0 20 -5 18 -12z m3784 -13 c-3 -20 -10 -25
-33 -25 -35 0 -36 6 -7 31 30 27 46 24 40 -6z m-5247 5 c11 -18 -15 -40 -46
-40 -22 0 -29 5 -29 19 0 18 13 25 57 30 6 0 15 -4 18 -9z m61 -29 c-9 -14
-33 -14 -41 -1 -4 6 -1 18 6 26 11 13 14 13 27 0 8 -8 11 -19 8 -25z m82 11
c3 -19 -1 -22 -27 -22 -16 0 -33 5 -36 10 -13 21 4 39 32 37 21 -2 29 -8 31
-25z m3670 5 c4 -21 -25 -34 -40 -19 -8 8 -8 16 2 27 16 19 34 15 38 -8z m75
9 c8 -19 -16 -38 -37 -30 -18 7 -18 7 -10 28 8 20 40 21 47 2z m57 -6 c0 -13
-7 -20 -20 -20 -19 0 -27 20 -13 33 13 14 33 6 33 -13z m424 -4 c59 2 75 -6
51 -26 -12 -10 -25 -10 -59 -1 -25 6 -47 11 -49 11 -4 0 -3 -19 2 -54 0 -6 7
-2 14 8 14 19 42 14 51 -10 4 -11 -4 -14 -35 -14 -28 0 -39 -4 -36 -12 2 -8
18 -12 39 -10 19 1 46 -2 59 -7 23 -9 23 -9 4 -16 -50 -17 -51 -18 -22 -28 33
-13 34 -21 5 -34 -18 -8 -19 -12 -8 -16 8 -2 28 -8 44 -13 43 -13 45 -34 4
-35 -18 -1 -25 -3 -15 -6 15 -4 22 -21 18 -45 0 -4 17 -11 39 -14 44 -7 53
-28 18 -40 l-23 -7 23 -8 c25 -9 30 -39 6 -39 -8 0 -13 4 -10 8 8 14 -36 45
-63 44 -79 -3 -153 -16 -158 -28 -2 -7 -15 -20 -28 -28 -20 -13 -29 -14 -50
-4 -20 9 -23 14 -13 26 10 11 9 16 -5 23 -24 14 -21 46 6 53 14 4 32 -1 49
-14 35 -26 40 -25 32 5 -4 15 -2 25 5 25 22 0 10 18 -16 26 l-28 7 28 6 c27 6
29 9 32 69 4 56 2 62 -15 62 -11 0 -20 5 -20 10 0 10 14 14 38 11 16 -2 16 62
0 88 -9 14 -8 22 3 34 10 11 16 12 21 3 4 -8 27 -11 62 -10z m1016 15 c0 -5
-7 -12 -16 -15 -22 -9 -24 -8 -24 9 0 8 9 15 20 15 11 0 20 -4 20 -9z m-6641
-17 c44 -22 38 -48 -12 -52 -35 -3 -37 -2 -37 26 0 24 7 42 15 42 1 0 16 -7
34 -16z m2641 1 c0 -8 -4 -15 -10 -15 -5 0 -10 7 -10 15 0 8 5 15 10 15 6 0
10 -7 10 -15z m160 -1 c11 -13 10 -16 -8 -21 -12 -3 -19 -10 -15 -16 3 -6 1
-7 -5 -3 -20 12 -13 56 8 56 4 0 13 -7 20 -16z m1877 -14 c3 -11 9 -18 13 -15
4 2 5 -7 2 -20 -2 -14 -9 -22 -14 -19 -5 3 -7 12 -4 19 3 9 -4 15 -17 17 -12
2 -23 11 -25 21 -5 25 38 23 45 -3z m-4170 -37 c-3 -10 -5 -4 -5 12 0 17 2 24
5 18 2 -7 2 -21 0 -30z m253 18 c0 -22 -25 -45 -40 -36 -13 8 -13 28 2 43 18
18 38 14 38 -7z m2124 -27 c-1 -14 -8 -32 -16 -41 -7 -9 -12 -24 -10 -33 2
-10 -4 -20 -13 -23 -11 -5 -15 1 -15 23 0 16 -4 31 -9 34 -5 4 -4 16 2 30 13
27 30 25 20 -2 -3 -9 -3 -14 1 -11 4 4 8 16 11 28 10 51 35 47 29 -5z m-2994
27 c0 -12 -20 -25 -27 -18 -7 7 6 27 18 27 5 0 9 -4 9 -9z m1385 -16 c0 -13
-8 -21 -22 -23 -17 -3 -23 2 -23 16 0 10 3 22 7 26 13 13 38 1 38 -19z m73 2
c4 -21 -27 -35 -38 -17 -12 19 0 42 19 38 9 -2 17 -11 19 -21z m-458 4 c0 -14
-18 -23 -30 -16 -6 4 -8 11 -5 16 8 12 35 12 35 0z m5685 -30 c7 -33 -11 -71
-34 -71 -8 0 -23 -8 -33 -17 -20 -18 -29 -13 -51 30 -14 27 -14 27 -16 -23 -1
-47 12 -86 32 -101 15 -11 3 -44 -17 -47 -11 -3 -24 2 -30 10 -12 16 -49 38
-64 38 -6 0 -20 -11 -33 -25 -26 -27 -41 -32 -37 -12 5 25 -14 73 -40 100 -22
23 -23 27 -8 27 11 0 30 -12 43 -26 l24 -27 -6 37 c-5 22 -3 41 4 50 6 7 9 21
5 30 -4 10 0 18 12 22 11 3 33 11 50 19 25 11 36 11 64 -1 28 -12 35 -12 49 0
16 14 59 25 73 19 3 -2 9 -16 13 -32z m-1369 -16 c6 -25 7 -48 2 -51 -4 -3 -3
-14 3 -25 5 -11 8 -25 6 -32 -3 -7 -10 0 -16 16 -6 15 -15 27 -20 27 -18 0
-20 29 -4 61 13 26 13 33 2 40 -12 7 -11 9 1 9 10 0 19 -16 26 -45z m-1316 15
c19 -16 20 -21 8 -32 -7 -7 -18 -14 -23 -15 -6 -1 -19 -4 -30 -8 -19 -6 -19
-6 -1 9 10 8 15 20 11 26 -6 10 0 40 8 40 2 0 14 -9 27 -20z m-530 6 c0 -2 -8
-10 -17 -17 -16 -13 -17 -12 -4 4 13 16 21 21 21 13z m250 -12 c0 -8 -32 -33
-42 -34 -16 0 -7 29 10 33 27 7 32 7 32 1z m-3115 -162 c-11 -103 -18 -62 -9
50 6 72 10 89 12 58 2 -25 1 -73 -3 -108z m2848 76 c-7 -61 -13 -60 -13 1 0
29 4 50 9 47 5 -3 6 -25 4 -48z m287 27 c0 -7 -8 -19 -17 -25 -17 -9 -16 -11
6 -30 13 -11 30 -20 37 -20 11 0 13 -12 10 -49 -2 -28 -6 -54 -9 -58 -8 -13
-112 -10 -110 3 1 7 -6 10 -16 7 -33 -9 -33 17 -1 50 48 49 66 107 33 107 -15
0 -14 2 3 15 25 19 64 19 64 0z m-1070 -16 c0 -5 -4 -9 -10 -9 -5 0 -10 7 -10
16 0 8 5 12 10 9 6 -3 10 -10 10 -16z m1244 -25 c3 -8 2 -12 -4 -9 -6 3 -10
10 -10 16 0 14 7 11 14 -7z m106 -16 c0 -5 -8 -8 -17 -7 -10 0 -13 3 -6 5 7 3
9 13 6 22 -4 15 -3 15 6 2 6 -8 11 -18 11 -22z m2937 15 c3 -10 13 -26 20 -35
16 -19 10 -38 -13 -38 -8 0 -14 10 -14 24 0 13 -7 29 -15 36 -19 16 -19 30 0
30 9 0 18 -8 22 -17z m-2902 -23 c-4 -6 -2 -17 4 -24 16 -19 9 -80 -9 -87 -10
-4 -21 8 -37 39 -27 53 -27 52 -9 52 7 0 19 7 26 15 14 17 35 21 25 5z m791
-87 c-10 -10 -19 5 -10 18 6 11 8 11 12 0 2 -7 1 -15 -2 -18z m-1399 -5 c-3
-8 -6 -5 -6 6 -1 11 2 17 5 13 3 -3 4 -12 1 -19z m2093 -2 c0 -9 -9 -14 -20
-13 -20 1 -25 9 -13 20 12 12 33 7 33 -7z m797 -28 c-3 -8 -6 -5 -6 6 -1 11 2
17 5 13 3 -3 4 -12 1 -19z m-3322 -8 c35 -1 37 -2 17 -11 -13 -5 -28 -7 -32
-4 -5 3 -10 0 -12 -6 -3 -8 -10 -6 -21 5 -15 16 -21 14 -18 -6 2 -12 -19 -9
-64 6 l-40 14 45 5 c25 2 54 2 65 1 11 -2 38 -4 60 -4z m218 -64 c-5 -31 -32
-69 -34 -51 -1 6 -3 28 -4 51 -2 37 0 40 21 36 20 -4 22 -9 17 -36z m476 35
c9 -6 22 -6 33 0 15 8 18 6 18 -11 0 -14 7 -20 21 -20 11 0 18 -4 14 -10 -3
-5 -25 -7 -48 -5 -23 2 -47 4 -53 4 -7 1 -19 12 -28 26 -16 24 -16 25 6 25 13
0 30 -4 37 -9z m2315 -34 c-6 -38 -9 -41 -29 -34 -9 4 -15 19 -15 40 0 31 2
34 25 29 22 -4 24 -8 19 -35z m-3364 23 c0 -5 -5 -10 -11 -10 -5 0 -7 5 -4 10
3 6 8 10 11 10 2 0 4 -4 4 -10z m4103 -17 c-7 -2 -21 -2 -30 0 -10 3 -4 5 12
5 17 0 24 -2 18 -5z m-3777 -91 c-12 -12 -18 8 -10 35 l8 28 4 -28 c2 -16 1
-31 -2 -35z m70 11 c-11 -11 -17 4 -9 23 7 18 8 18 11 1 2 -10 1 -21 -2 -24z
m3614 27 c0 -5 -2 -10 -4 -10 -3 0 -8 5 -11 10 -3 6 -1 10 4 10 6 0 11 -4 11
-10z m-6650 -10 c-19 -13 -30 -13 -30 0 0 6 10 10 23 10 18 0 19 -2 7 -10z
m60 -50 c0 -3 -11 -6 -25 -6 -29 -2 -33 11 -8 25 16 9 32 -1 33 -19z m4723 23
c-7 -2 -21 -2 -30 0 -10 3 -4 5 12 5 17 0 24 -2 18 -5z m-3510 -20 c-7 -2 -21
-2 -30 0 -10 3 -4 5 12 5 17 0 24 -2 18 -5z m-445 -10 c-16 -2 -40 -2 -55 0
-16 2 -3 4 27 4 30 0 43 -2 28 -4z m3794 0 c-6 -2 -10 -8 -7 -12 2 -5 -8 -19
-23 -32 -15 -13 -21 -17 -14 -9 6 8 12 20 12 28 0 8 -5 10 -12 6 -9 -5 -9 -2
1 9 7 9 23 17 35 16 11 0 15 -3 8 -6z m-595 -25 c-3 -8 -6 -5 -6 6 -1 11 2 17
5 13 3 -3 4 -12 1 -19z m90 -20 c-3 -8 -6 -5 -6 6 -1 11 2 17 5 13 3 -3 4 -12
1 -19z m-4117 -4 c0 -2 -9 -4 -21 -4 -11 0 -18 4 -14 10 5 8 35 3 35 -6z
m6373 -47 c-3 -5 -10 -4 -15 1 -6 6 -7 16 -3 22 6 9 9 9 16 -1 4 -7 5 -17 2
-22z m-1196 17 c-3 -3 -12 -4 -19 -1 -8 3 -5 6 6 6 11 1 17 -2 13 -5z m-4777
-8 c0 -3 -4 -8 -10 -11 -5 -3 -10 -1 -10 4 0 6 5 11 10 11 6 0 10 -2 10 -4z
m540 -6 c0 -5 -5 -10 -11 -10 -5 0 -7 5 -4 10 3 6 8 10 11 10 2 0 4 -4 4 -10z
m5661 -13 c-10 -9 -11 -8 -5 6 3 10 9 15 12 12 3 -3 0 -11 -7 -18z m-6238 -2
c-3 -9 -8 -14 -10 -11 -3 3 -2 9 2 15 9 16 15 13 8 -4z m-365 -1 c32 -9 27
-24 -8 -24 -20 0 -30 5 -30 15 0 17 4 18 38 9z m109 -10 c-3 -3 -12 -4 -19 -1
-8 3 -5 6 6 6 11 1 17 -2 13 -5z m4890 -150 c-3 -3 -12 -4 -19 -1 -8 3 -5 6 6
6 11 1 17 -2 13 -5z m1581 -14 c-13 -20 -28 -27 -28 -12 0 10 22 32 32 32 5 0
3 -9 -4 -20z m-4779 -3 c14 4 14 3 1 -5 -23 -14 -79 -23 -85 -13 -7 12 21 22
42 14 12 -5 14 -3 8 8 -6 11 -5 11 5 2 7 -6 20 -9 29 -6z m-1699 -17 c0 -5 -4
-10 -10 -10 -5 0 -10 5 -10 10 0 6 5 10 10 10 6 0 10 -4 10 -10z m1700 -17
c-14 -2 -39 -8 -57 -13 -22 -5 -35 -4 -42 3 -7 9 8 12 57 13 37 1 56 -1 42 -3z
m2225 -103 c-4 -50 -9 -89 -12 -86 -3 2 -1 45 3 96 3 50 9 89 11 86 3 -3 2
-46 -2 -96z m-2325 80 c11 -6 36 -6 65 -1 29 5 43 5 37 -1 -5 -5 -34 -10 -65
-11 -46 -2 -53 -4 -44 -16 10 -12 8 -12 -13 -1 -15 8 -20 15 -12 18 6 2 10 8
6 13 -7 12 3 11 26 -1z m4836 -16 c-3 -18 -24 -34 -47 -34 -12 0 -15 7 -11 25
3 20 10 25 32 25 20 0 28 -5 26 -16z m-4846 -46 c0 -13 -5 -9 -31 19 l-24 26
27 -19 c15 -10 28 -22 28 -26z m96 26 c-39 -7 -72 -12 -74 -9 -6 5 78 23 113
23 17 0 -1 -6 -39 -14z m2804 -9 c0 -8 -7 -15 -15 -15 -16 0 -20 12 -8 23 11
12 23 8 23 -8z m-3452 -17 c18 -1 32 -6 32 -11 0 -5 6 -7 14 -4 9 4 12 0 9
-13 -3 -10 5 -26 18 -39 19 -18 20 -21 6 -27 -10 -3 -17 -12 -17 -19 0 -27
-20 -26 -46 2 -14 15 -29 28 -33 28 -4 0 -15 8 -24 17 -21 21 -23 50 -2 42 20
-8 19 5 -2 30 -13 15 -14 17 -2 9 8 -7 30 -13 47 -15z m523 -5 c13 -17 13 -17
-6 -3 -11 8 -22 16 -24 17 -2 2 0 3 6 3 6 0 17 -8 24 -17z m134 1 c-88 -16
-116 -16 -50 1 28 7 66 13 85 13 23 0 11 -5 -35 -14z m-134 -31 c10 -12 5 -11
-18 6 -18 12 -33 24 -33 27 0 9 37 -15 51 -33z m2386 5 c-3 -7 -5 -2 -5 12 0
14 2 19 5 13 2 -7 2 -19 0 -25z m-2431 1 c19 -22 19 -22 -3 -8 -13 8 -23 17
-23 21 0 12 6 9 26 -13z m174 -5 c-41 -8 -79 -12 -85 -10 -13 4 91 24 130 24
17 0 -4 -6 -45 -14z m2827 -8 c22 -7 36 -20 42 -39 7 -17 7 -25 1 -22 -6 4
-10 2 -10 -3 0 -17 13 -21 33 -10 20 10 20 9 -1 -25 -12 -19 -22 -46 -22 -61
0 -14 -4 -26 -10 -26 -18 0 -51 40 -57 70 -3 17 -12 30 -19 30 -21 0 -17 18 6
25 28 9 25 29 -7 62 -22 21 -23 25 -8 19 11 -5 35 -14 52 -20z m171 -11 c-9
-9 -30 14 -23 25 6 9 10 8 17 -4 6 -10 8 -19 6 -21z m-4501 9 c-3 -3 -12 -4
-19 -1 -8 3 -5 6 6 6 11 1 17 -2 13 -5z m1313 -4 c0 -5 -2 -10 -4 -10 -3 0 -8
5 -11 10 -3 6 -1 10 4 10 6 0 11 -4 11 -10z m-19 -17 c13 -16 12 -17 -3 -4
-10 7 -18 15 -18 17 0 8 8 3 21 -13z m282 10 c-7 -2 -21 -2 -30 0 -10 3 -4 5
12 5 17 0 24 -2 18 -5z m2174 -15 c-3 -8 -6 -5 -6 6 -1 11 2 17 5 13 3 -3 4
-12 1 -19z m-2238 8 c-2 -2 -22 -6 -44 -9 -27 -4 -35 -3 -25 3 14 9 79 15 69
6z m1331 -6 c0 -5 -4 -10 -10 -10 -5 0 -10 5 -10 10 0 6 5 10 10 10 6 0 10 -4
10 -10z m-2027 -27 c28 -26 22 -53 -12 -53 -16 0 -31 6 -34 13 -3 9 -7 9 -19
0 -11 -10 -17 -10 -26 -1 -13 13 -16 41 -6 50 12 12 80 5 97 -9z m3675 5 c7
-7 11 -26 11 -42 -2 -28 -2 -28 -6 -6 -3 14 -9 30 -15 35 -8 7 -9 4 -5 -8 4
-11 3 -16 -3 -12 -6 3 -10 13 -10 21 0 8 -4 14 -10 14 -5 0 -10 -7 -10 -15 0
-8 -4 -15 -9 -15 -7 0 -8 17 -2 38 3 8 49 0 59 -10z m-3800 -10 c6 -1 12 -8
12 -16 0 -16 -34 -63 -47 -64 -4 0 -16 -4 -25 -9 -18 -10 -20 -8 -22 31 -1 9
-14 17 -35 20 -32 5 -33 6 -15 21 23 21 50 27 89 22 17 -2 36 -5 43 -5z m820
5 c-10 -2 -26 -2 -35 0 -10 3 -2 5 17 5 19 0 27 -2 18 -5z m1608 -3 c-17 -6
-36 -5 -45 0 -11 7 -3 9 29 9 42 -1 43 -1 16 -9z m854 0 c0 -5 -2 -10 -4 -10
-3 0 -8 5 -11 10 -3 6 -1 10 4 10 6 0 11 -4 11 -10z m2330 -5 c11 -13 8 -15
-13 -15 -26 0 -42 12 -30 24 11 11 30 7 43 -9z m-3512 -6 c-2 -6 -7 -10 -11
-10 -4 1 -20 1 -37 1 -16 0 -30 5 -30 10 0 6 18 10 41 10 25 0 39 -4 37 -11z
m1266 -21 c3 -18 7 -57 10 -87 10 -96 26 -84 23 17 -2 100 11 123 28 47 5 -26
13 -43 18 -39 4 4 7 1 7 -7 0 -8 6 -21 12 -27 17 -17 20 -85 6 -159 -11 -61
-11 -63 27 -149 21 -47 53 -110 70 -139 l32 -53 -40 -16 c-22 -8 -37 -13 -34
-9 4 3 0 15 -8 27 -8 11 -15 30 -16 41 -1 37 -53 120 -75 120 -26 0 -58 31
-50 50 3 8 10 15 15 15 5 0 10 22 9 49 0 36 -6 59 -24 82 -17 23 -24 46 -24
76 0 55 -14 55 -27 1 -10 -43 -10 -43 -18 42 -12 117 -12 123 5 127 12 4 12 2
2 -5 -10 -7 -9 -19 8 -58 l20 -49 -3 68 c-1 47 2 67 10 67 7 0 14 -15 17 -32z
m-2536 5 c-10 -2 -28 -2 -40 0 -13 2 -5 4 17 4 22 1 32 -1 23 -4z m2212 -43
l-8 -35 -1 45 c-1 27 3 40 8 35 6 -6 6 -25 1 -45z m210 35 c7 -9 8 -15 2 -15
-5 0 -12 7 -16 15 -3 8 -4 15 -2 15 2 0 9 -7 16 -15z m-2900 -25 c0 -14 -14
-12 -28 2 -19 19 -14 30 8 18 11 -6 20 -15 20 -20z m3770 11 c7 -13 7 -22 0
-26 -6 -3 -13 2 -17 12 -4 10 -11 21 -17 25 -7 5 -4 8 6 8 10 0 22 -9 28 -19z
m1439 -3 c0 -13 -3 -17 -6 -10 -2 6 -11 12 -19 12 -8 0 -14 5 -14 10 0 6 9 10
20 10 14 0 20 -6 19 -22z m-4731 -5 c-10 -2 -26 -2 -35 0 -10 3 -2 5 17 5 19
0 27 -2 18 -5z m4817 -3 c3 -5 1 -10 -4 -10 -6 0 -11 5 -11 10 0 6 2 10 4 10
3 0 8 -4 11 -10z m152 -22 c0 -7 3 -36 7 -65 6 -48 5 -51 -14 -46 -19 5 -24
14 -21 40 1 7 -3 23 -10 35 -10 18 -8 24 7 35 22 16 31 17 31 1z m-4969 -5
c-10 -2 -26 -2 -35 0 -10 3 -2 5 17 5 19 0 27 -2 18 -5z m2451 -59 c15 -57 6
-111 -14 -94 -12 10 -13 6 -5 -20 5 -18 14 -38 21 -46 6 -8 8 -14 4 -14 -4 0
-2 -7 5 -15 7 -8 8 -15 3 -15 -6 0 -17 8 -25 18 -19 23 -73 161 -65 168 3 4 9
-5 13 -20 3 -14 13 -26 21 -26 11 0 14 7 9 25 -21 87 -21 81 -1 65 17 -14 18
-13 13 8 -4 12 -3 20 2 17 4 -2 13 -26 19 -51z m-75 30 c5 -14 4 -15 -9 -4
-17 14 -19 20 -6 20 5 0 12 -7 15 -16z m574 4 c-6 -16 -36 -34 -44 -25 -9 9
15 37 33 37 8 0 13 -5 11 -12z m277 2 c4 -6 -7 -10 -27 -9 -31 1 -32 1 -8 9
14 4 26 8 27 9 1 1 5 -3 8 -9z m-1735 -11 c13 -9 13 -10 -2 -6 -9 3 -19 1 -21
-6 -2 -7 -8 -9 -12 -5 -8 7 2 28 13 28 4 0 14 -5 22 -11z m1615 -9 c-3 -5 -11
-10 -16 -10 -6 0 -7 5 -4 10 3 6 11 10 16 10 6 0 7 -4 4 -10z m305 0 c0 -5 -2
-10 -4 -10 -3 0 -8 5 -11 10 -3 6 -1 10 4 10 6 0 11 -4 11 -10z m-5090 -14 c0
-3 -4 -8 -10 -11 -5 -3 -10 -1 -10 4 0 6 5 11 10 11 6 0 10 -2 10 -4z m3187
-22 c-3 -3 -12 -4 -19 -1 -8 3 -5 6 6 6 11 1 17 -2 13 -5z m-39 -16 c-2 -7 5
-12 16 -11 12 1 15 -2 8 -9 -15 -15 -52 0 -45 18 6 17 24 19 21 2z m70 -54
c-3 -27 -4 -26 -9 8 -3 22 -1 34 4 29 5 -5 7 -21 5 -37z m-88 -18 c0 -26 -6
-18 -14 19 -5 22 -4 26 4 15 5 -8 10 -24 10 -34z m-1960 -8 c0 -7 -4 -19 -9
-26 -6 -11 -9 -9 -14 7 -2 11 -2 22 1 25 10 10 22 6 22 -6z m2033 -20 c-6 -11
-53 -10 -53 2 0 17 32 29 46 16 6 -6 10 -14 7 -18z m-3263 12 c0 -5 -5 -10
-11 -10 -5 0 -7 5 -4 10 3 6 8 10 11 10 2 0 4 -4 4 -10z m1763 -31 c-3 -11
-23 -32 -44 -46 -22 -14 -39 -32 -39 -39 0 -12 13 -19 23 -12 1 1 12 -4 25
-11 13 -7 22 -21 22 -35 0 -12 3 -26 7 -30 4 -4 8 -15 8 -24 0 -9 5 -16 12
-15 21 4 7 -66 -19 -87 -35 -29 -43 -24 -44 28 -1 26 -4 64 -7 85 -6 35 -5 36
13 27 30 -16 25 5 -7 30 -15 11 -33 18 -41 15 -8 -3 -16 3 -19 15 -7 28 -27
25 -48 -6 -13 -20 -15 -32 -7 -48 9 -20 7 -21 -49 -21 -70 0 -82 9 -37 28 37
15 51 57 20 57 -16 1 -16 1 1 11 9 5 17 16 17 23 0 14 48 37 125 60 74 22 94
21 88 -5z m1427 12 c0 -5 -7 -14 -15 -21 -8 -7 -15 -18 -15 -26 0 -7 -5 -16
-11 -19 -5 -4 -3 10 5 30 9 21 16 39 16 41 0 2 5 4 10 4 6 0 10 -4 10 -9z
m1513 -12 c3 -13 1 -19 -6 -16 -15 5 -22 37 -9 37 5 0 12 -9 15 -21z m-1415
-69 c-1 -24 -1 -24 -5 -2 -3 13 -9 19 -15 16 -7 -5 -8 -2 -3 6 6 10 4 12 -8 7
-11 -4 -17 -1 -17 8 0 8 -6 15 -12 16 -7 1 -2 4 12 8 29 9 50 -17 48 -59z
m1342 45 c0 -8 -7 -15 -15 -15 -8 0 -15 7 -15 15 0 8 7 15 15 15 8 0 15 -7 15
-15z m-1070 -9 c0 -8 -6 -16 -14 -19 -10 -4 -12 0 -9 14 6 22 23 26 23 5z
m3161 4 c16 -9 17 -14 7 -33 -6 -12 -11 -34 -10 -49 1 -16 -2 -28 -8 -28 -5 0
-10 7 -10 15 0 8 -11 17 -26 21 -27 7 -31 39 -4 39 8 0 16 10 18 23 4 25 6 26
33 12z m-2053 -48 c-9 -11 -9 -14 -1 -9 7 5 5 -8 -5 -33 -16 -38 -17 -38 -20
-12 -2 15 -7 32 -11 37 -4 6 -11 18 -14 27 -5 13 -1 16 19 12 19 -3 24 -1 18
8 -6 9 -3 9 9 -1 14 -11 15 -16 5 -29z m-941 13 c0 -8 -4 -12 -9 -9 -5 3 -6
10 -3 15 9 13 12 11 12 -6z m-217 -26 c0 -6 -5 -19 -11 -31 -16 -30 21 -66 61
-60 32 5 36 12 20 42 -6 12 -17 16 -30 13 -16 -4 -19 -2 -14 11 6 15 9 15 28
3 26 -18 42 -59 31 -83 -5 -11 -7 -25 -6 -31 1 -7 -6 -13 -16 -13 -14 0 -15 2
-4 9 11 7 9 11 -8 20 -11 7 -21 8 -21 5 0 -4 -13 7 -29 25 -26 29 -34 65 -22
99 3 7 21 0 21 -9z m-2030 -29 c0 -5 -8 -10 -17 -10 -14 0 -15 -2 -5 -9 15 -9
2 -22 -31 -34 -11 -4 -15 -12 -11 -19 4 -7 3 -10 -1 -5 -5 4 -18 -1 -29 -10
-15 -14 -18 -14 -8 -2 6 9 9 19 5 22 -3 4 -1 7 5 7 6 0 16 10 23 22 10 18 9
20 -5 15 -10 -4 -15 -3 -11 3 3 6 15 10 25 10 10 0 22 5 25 10 3 6 13 10 21
10 8 0 14 -4 14 -10z m3287 -27 c-3 -10 -5 -4 -5 12 0 17 2 24 5 18 2 -7 2
-21 0 -30z m-3237 23 c0 -2 -7 -6 -15 -10 -8 -3 -15 -1 -15 4 0 6 7 10 15 10
8 0 15 -2 15 -4z m1268 -49 c2 -29 0 -37 -13 -37 -12 0 -15 9 -13 40 2 50 22
47 26 -3z m-90 -7 c-11 -18 -28 -27 -28 -16 0 6 30 36 36 36 2 0 -1 -9 -8 -20z
m143 -30 c5 0 9 6 9 13 0 8 3 9 8 1 7 -11 86 -25 145 -26 16 -1 24 -5 20 -9
-5 -5 -53 -4 -109 3 -100 12 -100 12 -95 37 5 25 6 25 9 4 2 -13 8 -23 13 -23z
m1929 20 c0 -5 -2 -10 -4 -10 -3 0 -8 5 -11 10 -3 6 -1 10 4 10 6 0 11 -4 11
-10z m-3120 -15 c7 4 14 -2 17 -14 3 -12 9 -21 13 -21 5 0 6 -17 3 -39 -6 -47
3 -54 69 -52 30 0 47 -3 43 -9 -3 -6 -13 -10 -21 -10 -8 0 -14 -5 -14 -11 0
-6 -5 -7 -12 -2 -27 16 -47 12 -67 -14 -13 -15 -21 -20 -22 -12 0 9 -3 8 -7
-3 -5 -12 -11 -15 -22 -8 -12 8 -13 13 -2 30 10 17 10 20 -5 20 -24 0 -63 -39
-64 -64 0 -12 -3 -15 -6 -8 -2 6 -9 12 -14 12 -6 0 -7 -6 -3 -12 5 -8 0 -7
-11 2 -19 15 -22 15 -42 -1 -8 -7 -10 -5 -6 10 3 12 11 17 19 14 8 -3 14 -1
14 5 0 9 -30 26 -35 20 -8 -8 -8 -55 -1 -66 9 -15 -15 -12 -26 3 -4 6 -8 0 -8
-11 0 -22 -49 -77 -85 -96 -15 -8 -12 -2 8 19 24 26 26 31 12 37 -9 3 -13 10
-10 16 3 5 -2 10 -12 10 -10 1 -29 8 -43 16 -14 8 -18 13 -9 11 9 -3 16 1 16
8 0 7 -6 11 -14 8 -9 -4 -11 0 -7 10 3 9 21 21 39 27 33 11 46 27 50 62 1 13
-7 9 -27 -14 -15 -17 -28 -27 -28 -21 0 20 60 93 89 108 34 17 55 20 46 5 -3
-5 -2 -10 4 -10 5 0 2 -19 -9 -42 -17 -39 -17 -43 -2 -54 9 -7 18 -8 20 -3 2
5 8 9 13 9 4 0 6 -6 3 -13 -3 -8 2 -14 10 -14 8 0 13 4 11 8 -5 8 18 14 87 24
46 7 46 7 37 37 -4 17 -6 35 -3 39 3 5 -1 9 -9 9 -9 0 -14 10 -13 29 1 22 4
27 13 19 7 -5 17 -7 23 -3z m3044 -10 c3 -8 1 -15 -3 -15 -5 0 -11 7 -15 15
-3 8 -1 15 3 15 5 0 11 -7 15 -15z m-2639 -25 c-4 -6 14 -11 47 -12 52 -1 52
-2 9 -5 -49 -5 -75 2 -66 17 3 5 8 10 11 10 3 0 2 -4 -1 -10z m1698 -20 c-10
-11 -19 -20 -21 -20 -1 0 2 9 8 20 6 11 15 20 20 20 6 0 2 -9 -7 -20z m-1574
-70 c4 0 22 11 41 25 37 28 81 33 99 11 9 -10 21 -12 49 -5 20 5 41 9 47 9 17
0 -21 -30 -43 -35 -11 -2 -34 -13 -49 -24 -15 -11 -55 -30 -88 -42 -33 -12
-64 -25 -70 -30 -15 -15 28 -10 55 6 14 8 34 14 45 14 18 0 17 -1 -5 -14 -14
-8 -42 -19 -63 -25 -21 -6 -35 -15 -33 -19 7 -11 82 3 128 23 21 9 52 16 70
17 24 0 28 2 15 8 -17 6 -16 8 9 19 15 8 30 9 33 4 3 -5 13 -12 21 -15 9 -3 5
-6 -10 -6 -18 -1 -26 -7 -27 -21 -1 -11 3 -20 10 -20 6 0 3 -6 -7 -13 -15 -11
-3 -15 88 -26 58 -7 104 -17 101 -21 -3 -5 3 -11 12 -13 10 -3 -4 -2 -32 0
-124 11 -161 11 -177 -1 -14 -10 4 -15 110 -30 173 -25 383 -64 350 -65 -22
-1 -281 36 -454 64 -22 4 -31 1 -31 -9 0 -9 19 -15 61 -20 123 -13 237 -29
232 -33 -2 -2 -64 3 -137 11 -158 19 -169 19 -169 6 0 -5 20 -10 45 -10 25 0
45 -5 45 -11 0 -18 25 -36 59 -44 18 -4 30 -12 28 -18 -3 -7 -10 -11 -16 -9
-15 3 -14 -7 3 -24 13 -12 15 -11 18 8 2 12 9 23 17 26 8 3 11 0 7 -6 -4 -7
-2 -21 4 -32 8 -15 17 -19 38 -14 19 4 23 3 13 -4 -9 -7 5 -13 51 -21 61 -10
183 -14 146 -4 -10 2 -18 9 -18 14 0 6 -7 6 -19 -1 -11 -5 -26 -10 -33 -9 -7
0 -4 4 7 8 16 7 14 9 -13 14 -18 4 -43 2 -57 -3 -14 -5 -25 -6 -25 -2 0 5 12
13 28 19 23 9 19 10 -26 5 -40 -4 -56 -1 -63 9 -14 23 -10 30 14 25 12 -3 43
-8 70 -11 31 -4 47 -11 47 -21 0 -13 31 -20 68 -15 6 1 12 -3 12 -8 0 -5 9 -8
21 -6 15 3 19 0 15 -13 -2 -9 -12 -43 -21 -76 l-16 -59 -125 7 c-81 5 -124 4
-124 -3 0 -14 24 -19 137 -27 l102 -7 -33 -61 c-88 -159 -76 -146 -121 -140
-22 3 -49 7 -60 9 -21 4 -81 -38 -168 -117 -23 -21 -47 -38 -54 -38 -59 0
-413 57 -508 82 -66 17 -140 33 -164 35 -25 1 -48 9 -53 15 -5 9 -8 10 -8 1 0
-24 12 -42 26 -36 9 3 14 -2 14 -14 0 -29 -11 -35 -27 -15 -14 16 -14 16 -9
-2 5 -14 -2 -10 -25 12 -29 28 -31 34 -21 57 10 21 9 25 -4 25 -11 0 -14 9
-12 37 3 36 4 37 92 71 59 23 84 37 75 43 -7 4 -10 11 -6 15 4 4 17 -2 30 -13
39 -35 154 -93 185 -93 16 0 47 -6 68 -14 22 -7 57 -16 79 -20 32 -6 38 -5 28
5 -7 7 -13 22 -12 34 0 19 1 19 11 -2 13 -26 29 -34 58 -26 18 5 21 12 18 42
l-3 36 80 -7 c117 -10 150 -9 140 1 -6 5 -46 12 -90 15 -44 3 -89 7 -100 9
-56 10 -93 21 -132 38 -31 13 -41 14 -37 4 8 -19 -12 -27 -26 -10 -9 10 -9 15
-1 15 6 0 11 3 11 8 0 8 -53 33 -140 67 l-54 22 -15 66 c-9 37 -18 67 -21 67
-3 0 -43 -35 -90 -77 -47 -43 -69 -60 -50 -37 19 22 49 51 67 65 55 44 155
132 208 184 93 91 107 135 54 179 -17 14 -38 26 -47 26 -10 0 -12 3 -7 9 12
12 122 23 128 13 2 -4 2 -2 1 5 -3 12 18 23 44 23 15 0 15 -2 2 -10 -12 -8
-10 -10 9 -10 16 0 21 4 18 15 -4 8 -2 17 3 20 6 4 11 16 12 28 1 12 3 3 5
-20 2 -24 8 -43 12 -43z m2511 55 c7 -8 8 -15 2 -15 -5 0 -15 7 -22 15 -7 8
-8 15 -2 15 5 0 15 -7 22 -15z m-1081 -42 c0 -10 -3 -13 -5 -6 -3 7 -12 9 -21
6 -11 -4 -14 -2 -9 5 11 18 36 14 35 -5z m3111 7 c0 -5 -9 -10 -21 -10 -11 0
-17 5 -14 10 3 6 13 10 21 10 8 0 14 -4 14 -10z m-3999 -20 c107 -11 202 -20
212 -20 14 0 16 -4 8 -17 -10 -19 -48 -19 -201 -3 -47 5 -131 10 -188 11 -57
0 -101 4 -98 7 9 8 60 40 67 41 3 1 93 -8 200 -19z m1150 -4 c-7 -9 -7 -16 1
-24 9 -9 8 -12 -5 -12 -18 0 -23 25 -7 35 6 4 7 11 4 17 -4 7 -2 8 5 4 8 -6 9
-12 2 -20z m823 -2 c3 -8 2 -14 -2 -14 -10 0 -32 22 -32 32 0 12 28 -2 34 -18z
m-2257 -10 c-3 -3 -12 -4 -19 -1 -8 3 -5 6 6 6 11 1 17 -2 13 -5z m-30 -20
c-3 -3 -12 -4 -19 -1 -8 3 -5 6 6 6 11 1 17 -2 13 -5z m-38 -8 c-2 -2 -20 -6
-39 -10 -25 -4 -31 -3 -20 4 14 9 69 15 59 6z m2286 -16 c3 -6 -1 -7 -9 -4
-18 7 -21 14 -7 14 6 0 13 -4 16 -10z m-2152 -17 c-7 -2 -19 -2 -25 0 -7 3 -2
5 12 5 14 0 19 -2 13 -5z m1115 -102 l3 -81 29 0 c37 0 70 -41 70 -86 0 -26
-7 -38 -32 -57 -41 -31 -138 -78 -148 -72 -4 2 6 42 22 87 22 63 28 93 23 123
-3 22 -8 72 -9 112 -4 70 -3 71 18 64 19 -7 21 -17 24 -90z m-1110 72 c-10 -2
-28 -2 -40 0 -13 2 -5 4 17 4 22 1 32 -1 23 -4z m37 -3 c3 -5 1 -10 -4 -10 -6
0 -11 5 -11 10 0 6 2 10 4 10 3 0 8 -4 11 -10z m1626 -25 c24 -19 53 -35 64
-35 27 0 125 -67 125 -85 0 -8 -6 -15 -14 -15 -7 0 -26 -7 -42 -14 -28 -15
-49 -12 -39 5 4 5 15 9 26 9 10 0 19 7 19 15 0 8 -6 15 -13 15 -8 0 -24 11
-37 25 -16 17 -34 25 -57 25 -32 0 -54 13 -94 54 -47 48 2 49 62 1z m-1546 15
c-11 -5 -27 -9 -35 -9 -9 0 -8 4 5 9 11 5 27 9 35 9 9 0 8 -4 -5 -9z m1182
-22 c-3 -8 -6 -5 -6 6 -1 11 2 17 5 13 3 -3 4 -12 1 -19z m-984 5 c-7 -2 -21
-2 -30 0 -10 3 -4 5 12 5 17 0 24 -2 18 -5z m1227 -5 c0 -5 -25 -8 -55 -8 -30
0 -55 -4 -55 -10 0 -11 40 -50 51 -50 4 0 5 -15 2 -34 -5 -30 -2 -34 21 -38
15 -3 29 -1 32 3 3 5 10 9 15 9 6 0 7 -4 4 -10 -3 -5 2 -10 12 -11 151 -4 409
-45 417 -65 3 -9 -1 -11 -12 -7 -15 6 -15 5 -3 -10 16 -20 11 -20 -49 -6 -25
6 -58 11 -75 11 -16 -1 -33 5 -37 11 -6 9 -8 8 -9 -3 0 -10 -3 -9 -10 5 -7 15
-8 11 -5 -18 3 -22 1 -35 -5 -32 -5 4 -9 12 -9 19 0 21 -43 53 -80 59 -19 3
-29 3 -22 0 6 -2 10 -9 6 -14 -3 -5 0 -9 7 -9 8 0 8 -4 -1 -15 -10 -13 -9 -15
9 -15 11 0 21 -4 21 -10 0 -6 -34 -11 -77 -12 l-78 -1 105 -9 c58 -5 137 -16
176 -25 84 -18 106 -15 119 15 8 18 18 22 55 22 25 0 55 3 66 6 19 5 22 0 28
-40 5 -28 3 -53 -4 -67 -9 -17 -9 -23 1 -29 9 -6 10 -29 6 -92 -10 -121 -18
-158 -33 -158 -16 0 -16 8 -5 68 7 33 5 42 -5 42 -22 0 -16 17 9 24 19 6 20 8
6 19 -15 11 -15 42 -1 33 6 -3 8 30 3 64 -3 25 -102 0 -130 -33 -7 -10 -18
-17 -23 -17 -6 0 -4 7 3 16 7 9 -4 5 -25 -10 -21 -14 -47 -26 -58 -26 -16 0
-15 3 9 25 33 29 30 29 -65 11 -102 -19 -208 -7 -238 27 -21 24 -23 25 -37 9
-20 -22 -7 -46 34 -68 17 -8 29 -17 27 -20 -6 -6 -322 -27 -380 -25 -25 1 -49
-3 -53 -9 -13 -21 -23 -9 -15 20 11 39 3 68 -30 111 l-28 35 59 24 c90 35 145
107 133 169 l-6 29 38 -9 c68 -18 124 -22 124 -10 0 7 -7 14 -15 17 -8 4 -15
13 -15 21 0 8 5 11 10 8 9 -6 15 42 11 86 -1 13 10 16 64 15 36 -1 65 -4 65
-8z m2297 -8 c-1 -11 -7 -20 -14 -20 -19 0 -27 21 -12 31 22 13 28 11 26 -11z
m-5034 3 c-7 -2 -13 -11 -13 -19 0 -8 -9 -14 -22 -13 -15 0 -18 2 -8 6 8 3 19
12 23 19 4 8 13 14 20 13 9 0 9 -2 0 -6z m1585 0 c-10 -2 -26 -2 -35 0 -10 3
-2 5 17 5 19 0 27 -2 18 -5z m-1218 -7 c0 -2 -7 -7 -16 -10 -8 -3 -12 -2 -9 4
6 10 25 14 25 6z m2035 -15 c39 -8 39 -8 13 -15 -18 -6 -41 -3 -65 7 -32 14
-34 16 -13 16 14 0 43 -4 65 -8z m406 -18 c13 -16 12 -17 -3 -4 -10 7 -18 15
-18 17 0 8 8 3 21 -13z m-2628 0 c-7 -2 -19 -2 -25 0 -7 3 -2 5 12 5 14 0 19
-2 13 -5z m-223 -6 c0 -2 -12 -14 -27 -28 l-28 -24 24 28 c23 25 31 32 31 24z
m22 -22 c-2 -14 -8 -25 -13 -25 -12 0 -11 7 1 31 14 26 18 24 12 -6z m2748
-18 c0 -10 -4 -15 -10 -12 -5 3 -10 18 -10 33 0 21 2 24 10 12 5 -8 10 -23 10
-33z m-1347 26 c-7 -2 -21 -2 -30 0 -10 3 -4 5 12 5 17 0 24 -2 18 -5z m1151
-8 c-6 -16 -24 -21 -24 -7 0 11 11 22 21 22 5 0 6 -7 3 -15z m66 3 c0 -11 -12
-10 -30 2 -12 7 -10 9 8 7 12 0 22 -5 22 -9z m2803 -4 c10 -4 13 -15 10 -39
-3 -22 1 -43 11 -57 19 -27 21 -58 4 -58 -7 0 -25 10 -40 23 -26 21 -27 25
-21 80 6 57 9 62 36 51z m-2918 -22 c-3 -3 -11 0 -18 7 -9 10 -8 11 6 5 10 -3
15 -9 12 -12z m1324 -27 c12 -12 11 -14 -10 -14 -13 0 -43 3 -67 5 -36 5 -41
8 -31 20 6 8 8 14 3 14 -5 0 -2 4 5 9 16 11 76 -10 100 -34z m-1023 8 c-7 -7
-26 7 -26 19 0 6 6 6 15 -2 9 -7 13 -15 11 -17z m-338 -32 c5 -30 -6 -71 -18
-71 -5 0 -7 7 -4 15 3 8 -1 29 -10 46 -20 41 -20 41 7 37 14 -2 23 -11 25 -27z
m462 8 c0 -6 -4 -7 -10 -4 -5 3 -10 11 -10 16 0 6 5 7 10 4 6 -3 10 -11 10
-16z m-3147 5 c9 -9 -48 -54 -67 -54 -14 0 -13 5 6 30 20 28 46 38 61 24z
m3297 -30 c0 -2 -9 -4 -20 -4 -11 0 -20 4 -20 9 0 5 9 7 20 4 11 -3 20 -7 20
-9z m-3990 -8 c0 -2 -7 -7 -16 -10 -8 -3 -12 -2 -9 4 6 10 25 14 25 6z m6052
-43 c10 -9 18 -22 18 -30 0 -24 -59 15 -60 40 0 13 23 8 42 -10z m-6050 -62
c2 -13 -3 -26 -9 -28 -8 -3 -13 5 -14 19 0 13 -2 32 -4 42 -3 16 -2 17 10 5 7
-8 15 -25 17 -38z m2206 24 c-3 -3 -9 2 -12 12 -6 14 -5 15 5 6 7 -7 10 -15 7
-18z m-1488 -5 c-8 -5 -24 -10 -35 -10 -17 0 -17 2 -5 10 8 5 24 10 35 10 17
0 17 -2 5 -10z m3277 4 c-3 -3 -12 -4 -19 -1 -8 3 -5 6 6 6 11 1 17 -2 13 -5z
m533 -81 c0 -38 -10 -73 -21 -73 -10 0 -12 44 -3 78 9 31 24 28 24 -5z m1457
21 c-3 -3 -12 -4 -19 -1 -8 3 -5 6 6 6 11 1 17 -2 13 -5z m-5976 -50 c3 -21 7
-31 8 -20 1 15 4 16 16 6 14 -11 15 -41 6 -111 -2 -11 -41 -18 -41 -8 0 5 -3
8 -7 8 -31 -5 -35 16 -19 124 2 15 4 32 5 38 3 26 27 -1 32 -37z m6063 7 c4
-5 -3 -7 -14 -4 -23 6 -26 13 -6 13 8 0 17 -4 20 -9z m-4831 -51 c-10 -11 -19
-20 -21 -20 -1 0 2 9 8 20 6 11 15 20 20 20 6 0 2 -9 -7 -20z m3057 -47 c0
-13 -4 -23 -10 -23 -5 0 -10 17 -10 38 0 27 3 33 10 22 5 -8 10 -25 10 -37z
m-2816 21 c9 -24 2 -27 -28 -13 -19 9 -23 15 -14 21 20 12 35 9 42 -8z m4764
-33 c2 -7 -12 -11 -37 -11 -33 0 -41 4 -41 18 0 10 3 21 6 25 8 8 67 -18 72
-32z m-5035 14 c-3 -9 -8 -14 -10 -11 -3 3 -2 9 2 15 9 16 15 13 8 -4z m412
-5 c3 -6 -1 -7 -9 -4 -18 7 -21 14 -7 14 6 0 13 -4 16 -10z m4355 -30 c0 -11
5 -20 12 -20 6 0 9 -3 5 -6 -3 -3 -15 -3 -26 1 -24 7 -29 45 -6 45 8 0 15 -9
15 -20z m-4784 -37 c-5 -11 -10 -13 -17 -6 -7 7 -7 17 3 32 10 18 14 19 16 6
2 -9 1 -23 -2 -32z m4901 41 c-3 -3 -12 -4 -19 -1 -8 3 -5 6 6 6 11 1 17 -2
13 -5z m-4627 -14 c0 -5 -10 -10 -22 -10 -19 0 -20 2 -8 10 19 13 30 13 30 0z
m-1436 -32 c-5 -7 -8 -22 -8 -33 1 -16 0 -16 -3 -2 -3 9 -9 17 -15 17 -6 0 -3
9 7 20 19 21 32 20 19 -2z m6066 -23 c0 -3 -9 -5 -20 -5 -11 0 -20 7 -20 15 0
13 4 14 20 5 11 -6 20 -13 20 -15z m-2589 -5 c6 0 7 -5 3 -12 -5 -7 -3 -8 7
-3 16 11 76 7 98 -5 13 -7 10 -11 -17 -23 -47 -20 -88 -10 -114 26 -19 27 -20
30 -4 24 10 -4 22 -7 27 -7z m-3521 -14 c0 -3 -4 -8 -10 -11 -5 -3 -10 -1 -10
4 0 6 5 11 10 11 6 0 10 -2 10 -4z m6142 -4 c2 -4 20 -18 41 -31 20 -12 37
-27 37 -32 0 -6 -10 -3 -22 5 -12 9 -29 16 -38 16 -9 0 -26 7 -39 16 -18 13
-20 18 -10 25 17 11 26 11 31 1z m-2486 -34 c-9 -5 -22 -7 -29 -4 -7 2 -4 5 6
5 9 1 17 6 17 12 0 5 5 7 11 3 8 -5 6 -10 -5 -16z m-3665 -18 c10 -7 -6 -79
-21 -94 -11 -10 -11 0 0 114 1 13 2 13 7 0 3 -8 10 -17 14 -20z m39 -28 c0
-10 -6 -19 -14 -19 -8 0 -11 8 -8 19 6 23 22 23 22 0z m-13 -64 c-3 -7 -5 -2
-5 12 0 14 2 19 5 13 2 -7 2 -19 0 -25z m1170 -10 c-3 -8 -6 -5 -6 6 -1 11 2
17 5 13 3 -3 4 -12 1 -19z m940 -3 c0 -8 -4 -12 -9 -9 -5 3 -6 10 -3 15 9 13
12 11 12 -6z m48 7 c-26 -4 -28 -5 -10 -12 19 -8 19 -9 -2 -9 -23 -1 -30 9
-16 22 3 4 18 6 32 6 24 -2 24 -2 -4 -7z m1943 -56 c-2 0 -14 -10 -27 -21 -16
-13 -21 -15 -16 -5 16 29 27 40 37 34 5 -3 8 -7 6 -8z m-1143 -26 c3 -6 -1 -7
-9 -4 -18 7 -21 14 -7 14 6 0 13 -4 16 -10z m-272 -57 c-13 -2 -35 -2 -50 0
-16 2 -5 4 22 4 28 0 40 -2 28 -4z m-1503 -38 c9 -10 9 -15 1 -15 -6 0 -11 5
-11 11 0 5 -4 7 -10 4 -5 -3 -10 -1 -10 4 0 16 16 13 30 -4z m1687 9 c-3 -3
-12 -4 -19 -1 -8 3 -5 6 6 6 11 1 17 -2 13 -5z m-229 -11 c-10 -2 -28 -2 -40
0 -13 2 -5 4 17 4 22 1 32 -1 23 -4z m130 0 c-15 -2 -42 -2 -60 0 -18 2 -6 4
27 4 33 0 48 -2 33 -4z m3509 -9 c-3 -3 -12 -4 -19 -1 -8 3 -5 6 6 6 11 1 17
-2 13 -5z m-5067 -18 c0 -2 -7 -7 -16 -10 -8 -3 -12 -2 -9 4 6 10 25 14 25 6z
m1519 -10 c-2 -2 -42 -6 -89 -9 -49 -3 -70 -2 -50 3 36 8 147 13 139 6z m278
-2 c-3 -3 -12 -4 -19 -1 -8 3 -5 6 6 6 11 1 17 -2 13 -5z m-1837 -14 c0 -5 -5
-10 -11 -10 -5 0 -7 5 -4 10 3 6 8 10 11 10 2 0 4 -4 4 -10z m1683 -7 c-7 -2
-19 -2 -25 0 -7 3 -2 5 12 5 14 0 19 -2 13 -5z m-55 -10 c-10 -2 -26 -2 -35 0
-10 3 -2 5 17 5 19 0 27 -2 18 -5z"/>
<path d="M7468 4965 c-3 -14 -1 -28 5 -32 13 -8 37 25 30 43 -9 23 -30 16 -35
-11z"/>
<path d="M7210 5155 c0 -8 5 -15 10 -15 6 0 10 7 10 15 0 8 -4 15 -10 15 -5 0
-10 -7 -10 -15z"/>
<path d="M1220 2353 c-8 -2 -20 -6 -27 -8 -8 -3 -9 -13 -3 -34 7 -24 5 -31 -6
-31 -8 0 -14 -4 -14 -10 0 -5 9 -10 19 -10 21 0 36 26 21 35 -18 11 -10 26 10
20 11 -4 20 -2 20 4 0 6 7 11 16 11 14 0 14 3 4 15 -13 16 -16 16 -40 8z"/>
<path d="M3935 2993 c8 -15 12 -30 10 -34 -3 -4 2 -9 10 -13 8 -3 15 -12 15
-21 0 -11 11 -15 45 -15 36 0 43 3 38 16 -4 10 1 17 16 21 11 3 21 9 21 14 0
5 7 9 15 9 17 0 19 9 7 28 -7 10 -18 8 -50 -11 -23 -13 -40 -26 -37 -28 2 -3
-12 -3 -33 0 -20 2 -31 6 -24 9 10 3 7 11 -9 28 -30 32 -41 30 -24 -3z"/>
<path d="M5640 2669 c0 -52 24 -48 28 4 2 28 -1 37 -12 37 -12 0 -16 -11 -16
-41z"/>
<path d="M5666 2528 c-9 -35 -7 -76 4 -83 6 -4 10 15 10 49 0 60 -4 70 -14 34z"/>
<path d="M1150 2800 c19 -13 30 -13 30 0 0 6 -10 10 -22 10 -19 0 -20 -2 -8
-10z"/>
<path d="M6660 2630 c0 -5 4 -10 9 -10 6 0 13 5 16 10 3 6 -1 10 -9 10 -9 0
-16 -4 -16 -10z"/>
<path d="M7421 2626 c-9 -11 -7 -15 9 -19 15 -4 20 0 20 14 0 22 -13 25 -29 5z"/>
<path d="M4630 2516 c0 -2 11 -6 25 -8 14 -3 25 -1 25 3 0 5 -11 9 -25 9 -14
0 -25 -2 -25 -4z"/>
<path d="M5410 1576 c0 -9 5 -16 10 -16 6 0 10 4 10 9 0 6 -4 13 -10 16 -5 3
-10 -1 -10 -9z"/>
<path d="M2790 1460 c0 -5 5 -10 10 -10 6 0 10 5 10 10 0 6 -4 10 -10 10 -5 0
-10 -4 -10 -10z"/>
<path d="M2400 1040 c0 -5 8 -10 18 -10 10 0 23 -5 29 -11 12 -12 53 -3 53 10
0 5 -17 11 -37 15 -52 8 -63 8 -63 -4z"/>
<path d="M3197 884 c-4 -4 -17 -8 -29 -9 -13 -1 -28 -3 -34 -4 -7 0 -15 -8
-18 -17 -5 -13 -3 -14 6 -7 7 5 22 13 32 17 19 7 19 6 1 -14 -32 -35 -10 -31
25 5 19 19 32 35 29 35 -3 0 -9 -3 -12 -6z"/>
<path d="M3056 827 c-28 -36 -34 -61 -13 -55 16 6 62 88 48 88 -5 0 -21 -15
-35 -33z"/>
<path d="M3090 804 c0 -5 13 -31 29 -56 24 -37 44 -53 103 -82 76 -37 237 -88
251 -79 17 10 -9 23 -98 48 -154 45 -228 86 -266 149 -10 17 -19 26 -19 20z"/>
<path d="M3688 753 c6 -2 18 -2 25 0 6 3 1 5 -13 5 -14 0 -19 -2 -12 -5z"/>
<path d="M3595 670 c3 -5 11 -10 16 -10 6 0 7 5 4 10 -3 6 -11 10 -16 10 -6 0
-7 -4 -4 -10z"/>
<path d="M3485 660 c3 -5 10 -10 16 -10 5 0 9 5 9 10 0 6 -7 10 -16 10 -8 0
-12 -4 -9 -10z"/>
<path d="M3601 601 c-21 -25 -28 -27 -73 -23 -40 4 -50 2 -46 -9 6 -18 80 -24
108 -9 19 10 46 58 37 66 -1 2 -13 -9 -26 -25z"/>
<path d="M3505 461 c2 -2 -2 -10 -10 -17 -8 -9 -37 -14 -77 -15 -51 -1 -57 -2
-35 -9 38 -11 153 -11 200 1 31 8 35 12 24 23 -7 8 -34 15 -59 17 -26 2 -45 2
-43 0z"/>
<path d="M2820 430 c-29 -29 -16 -50 34 -50 29 0 37 -3 26 -10 -10 -6 -5 -9
20 -8 19 1 62 -9 95 -21 92 -35 242 -31 292 7 22 16 17 17 -120 18 -159 0
-241 18 -283 60 -30 29 -38 30 -64 4z"/>
<path d="M3331 424 c0 -11 3 -14 6 -6 3 7 2 16 -1 19 -3 4 -6 -2 -5 -13z"/>
<path d="M3280 408 c0 -19 2 -20 10 -8 13 19 13 30 0 30 -5 0 -10 -10 -10 -22z"/>
<path d="M3010 396 c0 -2 7 -6 15 -10 8 -3 15 -1 15 4 0 6 -7 10 -15 10 -8 0
-15 -2 -15 -4z"/>
<path d="M3395 253 c17 -3 38 -12 48 -20 9 -9 17 -12 17 -7 0 20 -25 34 -59
33 -34 -2 -35 -2 -6 -6z"/>
<path d="M5025 860 c3 -5 8 -10 11 -10 2 0 4 5 4 10 0 6 -5 10 -11 10 -5 0 -7
-4 -4 -10z"/>
<path d="M4975 801 c-6 -11 9 -23 19 -14 9 9 7 23 -3 23 -6 0 -12 -4 -16 -9z"/>
<path d="M5202 801 c-8 -5 -6 -12 8 -24 24 -20 37 -23 21 -4 -6 8 -8 16 -5 19
9 10 -11 17 -24 9z"/>
<path d="M5140 775 c-15 -18 -14 -20 23 -29 31 -7 39 13 7 21 -11 3 -17 9 -14
14 9 15 -3 10 -16 -6z"/>
<path d="M5069 767 c5 -5 19 -7 32 -5 20 3 19 5 -9 9 -20 3 -29 2 -23 -4z"/>
<path d="M5069 678 c23 -6 37 -6 44 1 8 8 -2 11 -33 10 l-45 -1 34 -10z"/>
<path d="M7904 4703 c-16 -12 -56 -101 -50 -112 12 -19 67 13 73 41 8 40 29
55 55 39 18 -11 19 -10 16 11 -2 19 -10 23 -43 26 -22 1 -45 -1 -51 -5z"/>
<path d="M7862 4540 c-22 -35 12 -57 38 -25 10 12 10 18 0 30 -16 20 -23 19
-38 -5z"/>
<path d="M7338 4340 c-7 -11 -23 -20 -35 -20 -14 0 -23 -6 -23 -15 0 -12 4
-13 18 -5 9 5 29 14 45 20 15 5 27 16 27 25 0 21 -18 19 -32 -5z"/>
<path d="M7623 4326 c-27 -13 -30 -26 -7 -26 15 0 44 23 44 34 0 8 -11 6 -37
-8z"/>
<path d="M7622 3967 c-8 -9 -8 -19 1 -36 14 -28 30 -30 36 -4 2 10 9 22 17 26
8 4 14 12 14 17 0 15 -56 12 -68 -3z"/>
<path d="M7544 3504 c3 -9 6 -18 6 -20 0 -3 9 0 20 6 28 15 25 30 -6 30 -20 0
-25 -4 -20 -16z"/>
<path d="M7280 3410 c0 -5 5 -10 10 -10 6 0 10 5 10 10 0 6 -4 10 -10 10 -5 0
-10 -4 -10 -10z"/>
<path d="M7960 3166 c0 -29 10 -38 29 -27 18 11 10 45 -12 49 -12 3 -17 -3
-17 -22z"/>
</g>
</svg>
